<?xml version="1.0" encoding="utf-8"?>
<!-- Generator: Adobe Illustrator 26.5.0, SVG Export Plug-In . SVG Version: 6.00 Build 0)  -->
<svg version="1.2" baseProfile="tiny" id="g-lecturer_linechart-Artboard_7-interactives-img" xmlns="http://www.w3.org/2000/svg" xmlns:xlink="http://www.w3.org/1999/xlink"
	 x="0px" y="0px" viewBox="0 0 600 513.093" overflow="visible" xml:space="preserve">
<g>
	<rect x="12.436" y="243.436" fill="none" width="162.639" height="131.964"/>
	<g id="i2018_00000129191868650062580990000002175823121317765765_">
		
			<rect id="_x32_018ipadb_00000133487941042789973930000001991910477510594725_" x="12.436" y="243.436" fill="#0A9396" width="162.639" height="131.964"/>
		
			<rect id="_x32_018ipadr_00000097488522677389751460000007963192022606703016_" x="12.436" y="376.917" fill="#E76F51" width="162.639" height="50.434"/>
		
			<rect id="_x32_018ipady_00000109752340955129814670000014846524330791208082_" x="176.898" y="243.436" fill="#EE9B00" width="59.68" height="183.915"/>
	</g>
	<rect x="176.898" y="243.436" fill="none" width="59.68" height="183.915"/>
	<g id="i2019_00000042698816735763475630000005214169878442548383_">
		
			<rect id="_x32_019ipadb_00000103254129757465826030000016374758186034904485_" x="12.436" y="243.436" fill="#0A9396" width="159.45" height="130.068"/>
		
			<rect id="_x32_019ipadr_00000107568738315977328080000001490043773384997053_" x="12.436" y="375.021" fill="#E76F51" width="159.45" height="52.331"/>
		
			<rect id="_x32_019ipady_00000140011228507646169800000007646530371702520465_" x="173.709" y="243.436" fill="#EE9B00" width="62.869" height="183.915"/>
	</g>
	<rect x="12.436" y="243.436" fill="none" width="159.906" height="129.689"/>
	<rect x="12.436" y="374.642" fill="none" width="159.906" height="52.71"/>
	<rect x="174.164" y="243.436" fill="none" width="62.413" height="183.915"/>
	<g id="i2020_00000086660830123719209270000016664159511951466923_">
		
			<rect id="_x32_020ipadr_00000004512584020918446830000000139745831989842058_" x="12.436" y="374.642" fill="#E76F51" width="159.906" height="52.71"/>
		
			<rect id="_x32_020ipady_00000160878571221315205430000007378212087360195492_" x="174.164" y="243.436" fill="#EE9B00" width="62.413" height="183.915"/>
		
			<rect id="_x32_020ipadb_00000137831541971934280020000017093653654007543695_" x="12.436" y="243.436" fill="#0A9396" width="159.906" height="129.689"/>
	</g>
	<rect x="12.436" y="243.436" fill="none" width="158.539" height="137.652"/>
	<rect x="12.436" y="382.605" fill="none" width="158.539" height="44.746"/>
	<g id="i2021_00000076579543005997261440000001210518565461038227_">
		
			<rect id="_x32_021ipadb_00000052076250535540958910000007951883974417745316_" x="12.436" y="243.436" fill="#0A9396" width="158.539" height="137.652"/>
		
			<rect id="_x32_021ipadr_00000075869981932593624700000001558042931721057954_" x="12.436" y="382.605" fill="#E76F51" width="158.539" height="44.746"/>
		
			<rect id="_x32_021ipady_00000165236137615802397890000001933949647142593410_" x="172.798" y="243.436" fill="#EE9B00" width="63.78" height="183.915"/>
	</g>
	<rect x="172.798" y="243.436" fill="none" width="63.78" height="183.915"/>
	<rect x="12.436" y="243.436" fill="none" width="155.35" height="136.135"/>
	<rect x="12.436" y="381.088" fill="none" width="155.35" height="46.263"/>
	<g id="i2022_00000017482556552342149750000005830737187797681070_">
		
			<rect id="_x32_022ipadb_00000180368854894303228050000015555581408967919263_" x="12.436" y="243.436" fill="#0A9396" width="155.35" height="136.135"/>
		
			<rect id="_x32_022ipadr_00000054249722240922328130000000110742783542913686_" x="12.436" y="381.088" fill="#E76F51" width="155.35" height="46.263"/>
		
			<rect id="_x32_022ipady_00000119081673255057263380000011808737494541253020_" x="169.609" y="243.436" fill="#EE9B00" width="66.969" height="183.915"/>
	</g>
	<rect x="169.609" y="243.436" fill="none" width="66.969" height="183.915"/>
	<path id="b6001stl_00000000180541869326338050000010037641276773526181_" fill="none" stroke="#0A9396" d="M363.85,198.976
		l-70.858,4.52"/>
	<path id="b6002ndl_00000057849177804886799830000012672052419351606170_" fill="none" stroke="#0A9396" d="M434.708,194.455
		l-70.858,4.52"/>
	<path id="b6003rdl_00000033327394395825100130000008501963947424519102_" fill="none" stroke="#0A9396" d="M505.567,192.49
		l-70.858,1.965"/>
	<path id="b6004thl_00000017506209499494984030000010593920841910355901_" fill="none" stroke="#0A9396" d="M576.425,190.525
		l-70.858,1.965"/>
	<circle id="b6001_00000046317323777334832650000002488486134222967460_" fill="#0A9396" cx="292.992" cy="203.496" r="3.188"/>
	<circle id="b6002_00000032648635348470597770000018174213311561205909_" fill="#0A9396" cx="363.85" cy="198.779" r="3.188"/>
	<circle id="b6003_00000157305899866680875840000016094828332007582391_" fill="#0A9396" cx="434.708" cy="194.455" r="3.188"/>
	<circle id="b6004_00000001660094111595876480000005509553574088859031_" fill="#0A9396" cx="505.567" cy="192.49" r="3.188"/>
	<circle id="b6005_00000020397688651178899380000009076856342198130099_" fill="#0A9396" cx="576.425" cy="190.525" r="3.188"/>
	<path id="r600lastl_00000127760157151576920430000000771592334311340936_" fill="none" stroke="#E76F51" d="M505.567,412.616
		l70.858-5.503"/>
	<path id="r6003rdl_00000062914942770998330900000017990530868703235205_" fill="none" stroke="#E76F51" d="M434.708,386.673
		l70.858,25.943"/>
	<path id="r6002ndl_00000085242190896472088630000009915086275669035429_" fill="none" stroke="#E76F51" d="M363.85,390.603
		l70.858-3.931"/>
	<path id="r6001stl_00000121243306250689986370000009373719257442615988_" fill="none" stroke="#E76F51" d="M292.992,398.072
		l70.858-7.469"/>
	<circle id="r6001_00000104704974495285138680000016773782571452466100_" fill="#E76F51" cx="292.992" cy="398.072" r="3.188"/>
	<circle id="r6002_00000143586049027450716050000001056721266483039109_" fill="#E76F51" cx="363.85" cy="390.603" r="3.188"/>
	<circle id="r6003_00000003787267042196757500000010868334124802714774_" fill="#E76F51" cx="434.708" cy="386.673" r="3.188"/>
	<circle id="r6004_00000126302942027725010730000013686248303675773097_" fill="#E76F51" cx="505.567" cy="412.616" r="3.188"/>
	<circle id="r6005_00000038383311115578399890000004724587728030722719_" fill="#E76F51" cx="576.425" cy="407.113" r="3.188"/>
	<path id="y600lastl_00000021809747009532774280000013610674266804326789_" fill="none" stroke="#EE9B00" d="M505.567,341.861
		l70.858-15.723"/>
	<path id="y6003rdl_00000059296608277996714250000004774316304298132878_" fill="none" stroke="#EE9B00" d="M434.708,338.716
		l70.858,3.145"/>
	<path id="y6002nd_00000040543993979029265440000007867721373675497634_" fill="none" stroke="#EE9B00" d="M363.85,339.11
		l70.858-0.393"/>
	<path id="y6001stl_00000088097475865722684380000012753109956027120027_" fill="none" stroke="#EE9B00" d="M292.992,356.405
		l70.858-17.296"/>
	<circle id="y6001_00000090276817937733300200000000275761001134193292_" fill="#EE9B00" cx="292.992" cy="356.405" r="3.188"/>
	<circle id="y6002_00000020390350402376308970000004447470791104294062_" fill="#EE9B00" cx="363.85" cy="339.11" r="3.188"/>
	<circle id="y6003_00000090981476597330556440000004975772024283694507_" fill="#EE9B00" cx="434.708" cy="338.716" r="3.188"/>
	<circle id="y6004_00000027604671209627331000000017905646524954829204_" fill="#EE9B00" cx="505.567" cy="341.861" r="3.188"/>
	<circle id="y6005_00000150092887078197337090000002805011607587454368_" fill="#EE9B00" cx="576.425" cy="326.138" r="3.188"/>
	<g id="itext2019_00000163054089460493851010000013504955519769531532_">
		<g id="itext2022_00000124151375299394488460000011976469352091675312_">
			<rect x="169.153" y="310.267" fill="none" width="67.88" height="49.225"/>
			<g display="none">
				<text transform="matrix(1 0 0 1 192.9858 320.5327)" display="inline" font-family="'Roboto-Regular'" font-size="12px">501</text>
				<text transform="matrix(1 0 0 1 181.2817 334.1328)" display="inline" font-family="'Roboto-Regular'" font-size="12px">full-time</text>
				<text transform="matrix(1 0 0 1 185.0434 347.7329)" display="inline" font-family="'Roboto-Regular'" font-size="12px">faculty </text>
			</g>
			<rect x="22.685" y="299.8" fill="none" width="133.021" height="37.809"/>
			<g display="none">
				<text transform="matrix(1 0 0 1 79.0884 310.0654)" display="inline" font-family="'Roboto-Regular'" font-size="12px">846 </text>
				<text transform="matrix(1 0 0 1 47.8491 323.6655)" display="inline" font-family="'Roboto-Regular'" font-size="12px">full-time faculty</text>
			</g>
			<rect x="37.64" y="186.009" fill="none" width="177.394" height="16.087"/>
			<g display="none">
				<text transform="matrix(1 0 0 1 37.6401 197.9848)" display="inline" font-family="'Roboto-Regular'" font-size="14px">T</text>
				<text transform="matrix(1 0 0 1 45.3169 197.9848)" display="inline" font-family="'Roboto-Regular'" font-size="14px">o</text>
				<text transform="matrix(1 0 0 1 53.3013 197.9848)" display="inline" font-family="'Roboto-Regular'" font-size="14px">t</text>
				<text transform="matrix(1 0 0 1 57.8745 197.9848)" display="inline" font-family="'Roboto-Regular'" font-size="14px">a</text>
				<text transform="matrix(1 0 0 1 65.4897 197.9848)" display="inline" font-family="'Roboto-Regular'" font-size="14px">l</text>
				<text transform="matrix(1 0 0 1 68.8872 197.9848)" display="inline" font-family="'Roboto-Regular'" font-size="14px">:</text>
				<text transform="matrix(1 0 0 1 72.2778 197.9848)" display="inline" font-family="'Roboto-Regular'" font-size="14px"> </text>
				<text transform="matrix(1 0 0 1 75.7436 197.9848)" display="inline" font-family="'Roboto-Regular'" font-size="14px">1</text>
				<text transform="matrix(1 0 0 1 83.605 197.9848)" display="inline" font-family="'Roboto-Regular'" font-size="14px">,</text>
				<text transform="matrix(1 0 0 1 86.353 197.9848)" display="inline" font-family="'Roboto-Regular'" font-size="14px">6</text>
				<text transform="matrix(1 0 0 1 94.2143 197.9848)" display="inline" font-family="'Roboto-Regular'" font-size="14px">4</text>
				<text transform="matrix(1 0 0 1 102.0757 197.9848)" display="inline" font-family="'Roboto-Regular'" font-size="14px">2</text>
				<text transform="matrix(1 0 0 1 109.937 197.9848)" display="inline" font-family="'Roboto-Regular'" font-size="14px"> </text>
				<text transform="matrix(1 0 0 1 113.4028 197.9848)" display="inline" font-family="'Roboto-Regular'" font-size="14px">f</text>
				<text transform="matrix(1 0 0 1 118.2632 197.9848)" display="inline" font-family="'Roboto-Regular'" font-size="14px">u</text>
				<text transform="matrix(1 0 0 1 125.9809 197.9848)" display="inline" font-family="'Roboto-Regular'" font-size="14px">l</text>
				<text transform="matrix(1 0 0 1 129.3784 197.9848)" display="inline" font-family="'Roboto-Regular'" font-size="14px">l</text>
				<text transform="matrix(1 0 0 1 132.7759 197.9848)" display="inline" font-family="'Roboto-Regular'" font-size="14px">-</text>
				<text transform="matrix(1 0 0 1 136.6382 197.9848)" display="inline" font-family="'Roboto-Regular'" font-size="14px">t</text>
				<text transform="matrix(1 0 0 1 141.2114 197.9848)" display="inline" font-family="'Roboto-Regular'" font-size="14px">i</text>
				<text transform="matrix(1 0 0 1 144.6089 197.9848)" display="inline" font-family="'Roboto-Regular'" font-size="14px">m</text>
				<text transform="matrix(1 0 0 1 156.8794 197.9848)" display="inline" font-family="'Roboto-Regular'" font-size="14px">e</text>
				<text transform="matrix(1 0 0 1 164.2964 197.9848)" display="inline" font-family="'Roboto-Regular'" font-size="14px"> </text>
				<text transform="matrix(1 0 0 1 167.7622 197.9848)" display="inline" font-family="'Roboto-Regular'" font-size="14px">f</text>
				<text transform="matrix(1 0 0 1 172.6225 197.9848)" display="inline" font-family="'Roboto-Regular'" font-size="14px">a</text>
				<text transform="matrix(1 0 0 1 180.2378 197.9848)" display="inline" font-family="'Roboto-Regular'" font-size="14px">c</text>
				<text transform="matrix(1 0 0 1 187.5659 197.9848)" display="inline" font-family="'Roboto-Regular'" font-size="14px">u</text>
				<text transform="matrix(1 0 0 1 195.2837 197.9848)" display="inline" font-family="'Roboto-Regular'" font-size="14px">l</text>
				<text transform="matrix(1 0 0 1 198.6811 197.9848)" display="inline" font-family="'Roboto-Regular'" font-size="14px">t</text>
				<text transform="matrix(1 0 0 1 203.2544 197.9848)" display="inline" font-family="'Roboto-Regular'" font-size="14px">y</text>
			</g>
			<rect x="22.685" y="390.524" fill="none" width="133.021" height="37.809"/>
			<g display="none">
				<text transform="matrix(1 0 0 1 79.0884 400.7905)" display="inline" font-family="'Roboto-Regular'" font-size="12px">295 </text>
				<text transform="matrix(1 0 0 1 47.8491 414.3901)" display="inline" font-family="'Roboto-Regular'" font-size="12px">full-time faculty</text>
			</g>
			<rect x="8.047" y="98.918" fill="none" width="483.032" height="27.035"/>
			<text transform="matrix(1 0 0 1 8.047 112.6048)" display="none" font-family="'Roboto-Bold'" font-size="16px">Number of faculty by tenure status: 2022</text>
		</g>
	</g>
</g>
<style>
#g-lecturer_linechart-Artboard_7-interactives-img rect, #g-lecturer_linechart-Artboard_7-interactives-img circle, #g-lecturer_linechart-Artboard_7-interactives-img path, #g-lecturer_linechart-Artboard_7-interactives-img line, #g-lecturer_linechart-Artboard_7-interactives-img polyline, #g-lecturer_linechart-Artboard_7-interactives-img polygon { vector-effect: non-scaling-stroke; }
</style>
</svg>

