<?xml version="1.0" encoding="utf-8"?>
<!-- Generator: Adobe Illustrator 26.5.0, SVG Export Plug-In . SVG Version: 6.00 Build 0)  -->
<svg version="1.2" baseProfile="tiny" id="g-lecturer_linechart-Artboard_8-interactives-img" xmlns="http://www.w3.org/2000/svg" xmlns:xlink="http://www.w3.org/1999/xlink"
	 x="0px" y="0px" viewBox="0 0 300 883.065" overflow="visible" xml:space="preserve">
<g>
	<path id="b3002nd_00000016067405994945014090000006028787297089173655_" fill="none" stroke="#0A9396" d="M161.942,525.953
		l-60.353,4.661"/>
	<path id="b3003rd_00000091724486284906858160000009144644363205649298_" fill="none" stroke="#0A9396" d="M222.295,523.926
		l-60.353,2.027"/>
	<path id="b3004th_00000030484750683911739140000002434492033586995102_" fill="none" stroke="#0A9396" d="M282.648,521.9
		l-60.353,2.027"/>
	<circle id="b3001_00000085250217411847653080000008690453377873026712_" fill="#0A9396" cx="41.237" cy="535.276" r="3.287"/>
	<circle id="b3002_00000079461595250863946780000003107412363487684225_" fill="#0A9396" cx="101.59" cy="530.412" r="3.287"/>
	<circle id="b3003_00000153670899714654859000000003132324247515813567_" fill="#0A9396" cx="161.942" cy="525.953" r="3.287"/>
	<circle id="b3004_00000164491299371161584740000002177566842363459731_" fill="#0A9396" cx="222.295" cy="523.926" r="3.287"/>
	<circle id="b3005_00000125562272858435356400000005678881337452142510_" fill="#0A9396" cx="282.648" cy="521.9" r="3.287"/>
	<path id="r300last_00000072272216534777230930000017145035510124903590_" fill="none" stroke="#E76F51" d="M222.295,750.923
		l60.353-5.675"/>
	<path id="r3003rd_00000003098630399486218540000007153316068152187802_" fill="none" stroke="#E76F51" d="M161.942,724.17
		l60.353,26.753"/>
	<path id="r3002nd_00000131361832242724233440000009898457697587946142_" fill="none" stroke="#E76F51" d="M101.59,728.223
		l60.353-4.053"/>
	<path id="r3001st_00000040569724809960553900000002141874518893269932_" fill="none" stroke="#E76F51" d="M41.237,735.925
		l60.353-7.702"/>
	<circle id="r3001_00000150075937919852521000000007037389507103092386_" fill="#E76F51" cx="41.237" cy="735.925" r="3.287"/>
	<circle id="r3002_00000036937381025709276200000001169436228368577160_" fill="#E76F51" cx="101.59" cy="728.223" r="3.287"/>
	<circle id="r3003_00000050644460672101866460000016864870252203425166_" fill="#E76F51" cx="161.942" cy="724.17" r="3.287"/>
	<circle id="r3004_00000176003329083113810260000014975043879475568784_" fill="#E76F51" cx="222.295" cy="750.923" r="3.287"/>
	<circle id="r3005_00000024684796330461601500000012666476878940747952_" fill="#E76F51" cx="282.648" cy="745.248" r="3.287"/>
	<path id="y300last_00000006684719322652400390000010517390522132399773_" fill="none" stroke="#EE9B00" d="M222.295,677.96
		l60.353-16.214"/>
	<path id="y300third_00000111156379781558363480000008935579830741478024_" fill="none" stroke="#EE9B00" d="M161.942,674.717
		l60.353,3.243"/>
	<path id="y300second_00000037666263630138256240000011420591206203036830_" fill="none" stroke="#EE9B00" d="M101.59,675.122
		l60.353-0.405"/>
	<path id="y300first_00000023255330996042017180000005614713343238602899_" fill="none" stroke="#EE9B00" d="M41.237,692.958
		l60.353-17.835"/>
	<circle id="y3001_00000117669365345389680210000005823166152424739002_" fill="#EE9B00" cx="41.237" cy="692.958" r="3.287"/>
	<circle id="y3002_00000080890394214206161770000004655505370920908704_" fill="#EE9B00" cx="101.59" cy="675.122" r="3.287"/>
	<circle id="y3003_00000126300501233394816120000001664469229440138906_" fill="#EE9B00" cx="161.942" cy="674.717" r="3.287"/>
	<circle id="y3004_00000013180887353018989440000017290957265632351377_" fill="#EE9B00" cx="222.295" cy="677.96" r="3.287"/>
	<circle id="y3005_00000052073978085853505400000014573159725896592514_" fill="#EE9B00" cx="282.648" cy="661.746" r="3.287"/>
	<path id="b300first_00000116940868294364946700000004159709843268321187_" fill="none" stroke="#0A9396" d="M101.59,530.615
		l-60.353,4.662"/>
	<g id="p2022_00000056424102358215728470000007871393638209611409_">
		<g id="i2022_00000128470886824115651500000014665371848577866663_">
			
				<rect id="_x32_022ipadb_00000111879898467864668990000003942926416136677040_" x="32.005" y="264.842" fill="#0A9396" width="155.35" height="136.135"/>
			
				<rect id="_x32_022ipadr_00000072244914269436948580000018248702559699984558_" x="32.005" y="402.494" fill="#E76F51" width="155.35" height="46.263"/>
			
				<rect id="_x32_022ipady_00000178205350556935330670000010786893698071515010_" x="189.178" y="264.842" fill="#EE9B00" width="66.969" height="183.915"/>
		</g>
	</g>
	<g id="p2021_00000029759172274210537480000016871576928916814269_">
		<g>
			<g>
				<g id="i2021_00000178902291043964523830000005461420636255287209_">
					
						<rect id="_x32_021ipadb_00000070799830958459362010000015716447591125709724_" x="32.005" y="264.094" fill="#0A9396" width="158.539" height="137.652"/>
					
						<rect id="_x32_021ipadr_00000060024707925390166060000002186211772293844661_" x="32.005" y="403.263" fill="#E76F51" width="158.539" height="44.746"/>
					
						<rect id="_x32_021ipady_00000119085066926612799770000008961959807218210201_" x="192.367" y="264.094" fill="#EE9B00" width="63.78" height="183.915"/>
				</g>
				<rect x="191.834" y="331.439" fill="none" width="67.88" height="49.225"/>
				<g display="none">
					<text transform="matrix(1 0 0 1 215.667 341.7046)" display="inline" font-family="'Roboto-Regular'" font-size="12px">461</text>
					<text transform="matrix(1 0 0 1 203.9619 355.3047)" display="inline" font-family="'Roboto-Regular'" font-size="12px">full-time</text>
					<text transform="matrix(1 0 0 1 207.7237 368.9048)" display="inline" font-family="'Roboto-Regular'" font-size="12px">faculty </text>
				</g>
				<rect x="45.366" y="320.972" fill="none" width="133.021" height="37.809"/>
				<g display="none">
					<text transform="matrix(1 0 0 1 101.7691 331.2378)" display="inline" font-family="'Roboto-Regular'" font-size="12px">841 </text>
					<text transform="matrix(1 0 0 1 70.5298 344.8379)" display="inline" font-family="'Roboto-Regular'" font-size="12px">full-time faculty</text>
				</g>
				<rect x="45.366" y="411.696" fill="none" width="133.021" height="37.809"/>
				<g display="none">
					<text transform="matrix(1 0 0 1 101.7691 421.9614)" display="inline" font-family="'Roboto-Regular'" font-size="12px">281 </text>
					<text transform="matrix(1 0 0 1 70.5298 435.561)" display="inline" font-family="'Roboto-Regular'" font-size="12px">full-time faculty</text>
				</g>
			</g>
			<rect x="58.86" y="206.733" fill="none" width="177.394" height="16.087"/>
			<g display="none">
				<text transform="matrix(1 0 0 1 58.8598 218.7101)" display="inline" font-family="'Roboto-Regular'" font-size="14px">T</text>
				<text transform="matrix(1 0 0 1 66.5365 218.7101)" display="inline" font-family="'Roboto-Regular'" font-size="14px">o</text>
				<text transform="matrix(1 0 0 1 74.5209 218.7101)" display="inline" font-family="'Roboto-Regular'" font-size="14px">t</text>
				<text transform="matrix(1 0 0 1 79.0941 218.7101)" display="inline" font-family="'Roboto-Regular'" font-size="14px">a</text>
				<text transform="matrix(1 0 0 1 86.7094 218.7101)" display="inline" font-family="'Roboto-Regular'" font-size="14px">l</text>
				<text transform="matrix(1 0 0 1 90.1068 218.7101)" display="inline" font-family="'Roboto-Regular'" font-size="14px">:</text>
				<text transform="matrix(1 0 0 1 93.4975 218.7101)" display="inline" font-family="'Roboto-Regular'" font-size="14px"> </text>
				<text transform="matrix(1 0 0 1 96.9633 218.7101)" display="inline" font-family="'Roboto-Regular'" font-size="14px">1</text>
				<text transform="matrix(1 0 0 1 104.8246 218.7101)" display="inline" font-family="'Roboto-Regular'" font-size="14px">,</text>
				<text transform="matrix(1 0 0 1 107.5727 218.7101)" display="inline" font-family="'Roboto-Regular'" font-size="14px">5</text>
				<text transform="matrix(1 0 0 1 115.434 218.7101)" display="inline" font-family="'Roboto-Regular'" font-size="14px">8</text>
				<text transform="matrix(1 0 0 1 123.2953 218.7101)" display="inline" font-family="'Roboto-Regular'" font-size="14px">3</text>
				<text transform="matrix(1 0 0 1 131.1566 218.7101)" display="inline" font-family="'Roboto-Regular'" font-size="14px"> </text>
				<text transform="matrix(1 0 0 1 134.6225 218.7101)" display="inline" font-family="'Roboto-Regular'" font-size="14px">f</text>
				<text transform="matrix(1 0 0 1 139.4828 218.7101)" display="inline" font-family="'Roboto-Regular'" font-size="14px">u</text>
				<text transform="matrix(1 0 0 1 147.2006 218.7101)" display="inline" font-family="'Roboto-Regular'" font-size="14px">l</text>
				<text transform="matrix(1 0 0 1 150.5981 218.7101)" display="inline" font-family="'Roboto-Regular'" font-size="14px">l</text>
				<text transform="matrix(1 0 0 1 153.9955 218.7101)" display="inline" font-family="'Roboto-Regular'" font-size="14px">-</text>
				<text transform="matrix(1 0 0 1 157.8578 218.7101)" display="inline" font-family="'Roboto-Regular'" font-size="14px">t</text>
				<text transform="matrix(1 0 0 1 162.4311 218.7101)" display="inline" font-family="'Roboto-Regular'" font-size="14px">i</text>
				<text transform="matrix(1 0 0 1 165.8285 218.7101)" display="inline" font-family="'Roboto-Regular'" font-size="14px">m</text>
				<text transform="matrix(1 0 0 1 178.099 218.7101)" display="inline" font-family="'Roboto-Regular'" font-size="14px">e</text>
				<text transform="matrix(1 0 0 1 185.516 218.7101)" display="inline" font-family="'Roboto-Regular'" font-size="14px"> </text>
				<text transform="matrix(1 0 0 1 188.9818 218.7101)" display="inline" font-family="'Roboto-Regular'" font-size="14px">f</text>
				<text transform="matrix(1 0 0 1 193.8422 218.7101)" display="inline" font-family="'Roboto-Regular'" font-size="14px">a</text>
				<text transform="matrix(1 0 0 1 201.4574 218.7101)" display="inline" font-family="'Roboto-Regular'" font-size="14px">c</text>
				<text transform="matrix(1 0 0 1 208.7856 218.7101)" display="inline" font-family="'Roboto-Regular'" font-size="14px">u</text>
				<text transform="matrix(1 0 0 1 216.5033 218.7101)" display="inline" font-family="'Roboto-Regular'" font-size="14px">l</text>
				<text transform="matrix(1 0 0 1 219.9008 218.7101)" display="inline" font-family="'Roboto-Regular'" font-size="14px">t</text>
				<text transform="matrix(1 0 0 1 224.474 218.7101)" display="inline" font-family="'Roboto-Regular'" font-size="14px">y</text>
			</g>
		</g>
	</g>
	<g id="p2020_00000110455893368472321500000017928326744923455117_">
		<g>
			<rect x="58.86" y="206.733" fill="none" width="177.394" height="16.087"/>
			<g display="none">
				<text transform="matrix(1 0 0 1 58.8596 218.7091)" display="inline" font-family="'Roboto-Regular'" font-size="14px">T</text>
				<text transform="matrix(1 0 0 1 66.5364 218.7091)" display="inline" font-family="'Roboto-Regular'" font-size="14px">o</text>
				<text transform="matrix(1 0 0 1 74.5208 218.7091)" display="inline" font-family="'Roboto-Regular'" font-size="14px">t</text>
				<text transform="matrix(1 0 0 1 79.094 218.7091)" display="inline" font-family="'Roboto-Regular'" font-size="14px">a</text>
				<text transform="matrix(1 0 0 1 86.7093 218.7091)" display="inline" font-family="'Roboto-Regular'" font-size="14px">l</text>
				<text transform="matrix(1 0 0 1 90.1067 218.7091)" display="inline" font-family="'Roboto-Regular'" font-size="14px">:</text>
				<text transform="matrix(1 0 0 1 93.4973 218.7091)" display="inline" font-family="'Roboto-Regular'" font-size="14px"> </text>
				<text transform="matrix(1 0 0 1 96.9632 218.7091)" display="inline" font-family="'Roboto-Regular'" font-size="14px">1</text>
				<text transform="matrix(1 0 0 1 104.8245 218.7091)" display="inline" font-family="'Roboto-Regular'" font-size="14px">,</text>
				<text transform="matrix(1 0 0 1 107.5725 218.7091)" display="inline" font-family="'Roboto-Regular'" font-size="14px">6</text>
				<text transform="matrix(1 0 0 1 115.4339 218.7091)" display="inline" font-family="'Roboto-Regular'" font-size="14px">5</text>
				<text transform="matrix(1 0 0 1 123.2952 218.7091)" display="inline" font-family="'Roboto-Regular'" font-size="14px">2</text>
				<text transform="matrix(1 0 0 1 131.1565 218.7091)" display="inline" font-family="'Roboto-Regular'" font-size="14px"> </text>
				<text transform="matrix(1 0 0 1 134.6223 218.7091)" display="inline" font-family="'Roboto-Regular'" font-size="14px">f</text>
				<text transform="matrix(1 0 0 1 139.4827 218.7091)" display="inline" font-family="'Roboto-Regular'" font-size="14px">u</text>
				<text transform="matrix(1 0 0 1 147.2005 218.7091)" display="inline" font-family="'Roboto-Regular'" font-size="14px">l</text>
				<text transform="matrix(1 0 0 1 150.5979 218.7091)" display="inline" font-family="'Roboto-Regular'" font-size="14px">l</text>
				<text transform="matrix(1 0 0 1 153.9954 218.7091)" display="inline" font-family="'Roboto-Regular'" font-size="14px">-</text>
				<text transform="matrix(1 0 0 1 157.8577 218.7091)" display="inline" font-family="'Roboto-Regular'" font-size="14px">t</text>
				<text transform="matrix(1 0 0 1 162.4309 218.7091)" display="inline" font-family="'Roboto-Regular'" font-size="14px">i</text>
				<text transform="matrix(1 0 0 1 165.8284 218.7091)" display="inline" font-family="'Roboto-Regular'" font-size="14px">m</text>
				<text transform="matrix(1 0 0 1 178.0989 218.7091)" display="inline" font-family="'Roboto-Regular'" font-size="14px">e</text>
				<text transform="matrix(1 0 0 1 185.5159 218.7091)" display="inline" font-family="'Roboto-Regular'" font-size="14px"> </text>
				<text transform="matrix(1 0 0 1 188.9817 218.7091)" display="inline" font-family="'Roboto-Regular'" font-size="14px">f</text>
				<text transform="matrix(1 0 0 1 193.8421 218.7091)" display="inline" font-family="'Roboto-Regular'" font-size="14px">a</text>
				<text transform="matrix(1 0 0 1 201.4573 218.7091)" display="inline" font-family="'Roboto-Regular'" font-size="14px">c</text>
				<text transform="matrix(1 0 0 1 208.7854 218.7091)" display="inline" font-family="'Roboto-Regular'" font-size="14px">u</text>
				<text transform="matrix(1 0 0 1 216.5032 218.7091)" display="inline" font-family="'Roboto-Regular'" font-size="14px">l</text>
				<text transform="matrix(1 0 0 1 219.9007 218.7091)" display="inline" font-family="'Roboto-Regular'" font-size="14px">t</text>
				<text transform="matrix(1 0 0 1 224.4739 218.7091)" display="inline" font-family="'Roboto-Regular'" font-size="14px">y</text>
			</g>
			<g>
				<g id="i2020_00000100342638357820483890000000094879545498395011_">
					
						<rect id="_x32_020ipadr_00000097495431178829132060000011988730061639681175_" x="31.483" y="395.84" fill="#E76F51" width="159.906" height="52.71"/>
					
						<rect id="_x32_020ipady_00000001642604574731704170000010998420856697654686_" x="193.211" y="264.634" fill="#EE9B00" width="62.413" height="183.915"/>
					
						<rect id="_x32_020ipadb_00000019642775749940175990000011281577158570218141_" x="31.483" y="264.634" fill="#0A9396" width="159.906" height="129.689"/>
				</g>
				<rect x="192.589" y="330.373" fill="none" width="67.88" height="49.225"/>
				<g display="none">
					<text transform="matrix(1 0 0 1 216.4219 340.6391)" display="inline" font-family="'Roboto-Regular'" font-size="12px">469</text>
					<text transform="matrix(1 0 0 1 204.7178 354.2392)" display="inline" font-family="'Roboto-Regular'" font-size="12px">full-time</text>
					<text transform="matrix(1 0 0 1 208.4795 367.8393)" display="inline" font-family="'Roboto-Regular'" font-size="12px">faculty </text>
				</g>
				<rect x="46.121" y="319.906" fill="none" width="133.021" height="37.809"/>
				<g display="none">
					<text transform="matrix(1 0 0 1 102.5244 330.1718)" display="inline" font-family="'Roboto-Regular'" font-size="12px">836 </text>
					<text transform="matrix(1 0 0 1 71.2852 343.7719)" display="inline" font-family="'Roboto-Regular'" font-size="12px">full-time faculty</text>
				</g>
				<rect x="46.121" y="410.63" fill="none" width="133.021" height="37.809"/>
				<g display="none">
					<text transform="matrix(1 0 0 1 102.5244 420.8969)" display="inline" font-family="'Roboto-Regular'" font-size="12px">347 </text>
					<text transform="matrix(1 0 0 1 71.2852 434.4965)" display="inline" font-family="'Roboto-Regular'" font-size="12px">full-time faculty</text>
				</g>
			</g>
		</g>
	</g>
	<g id="p2019_00000115491503704869323860000005572641334277176727_">
		<g>
			<g>
				<g id="i2019_00000091000100311316944070000012153266808323076744_">
					
						<rect id="_x32_019ipadb_00000170263860005251289540000001754489437673957532_" x="33.047" y="264.094" fill="#0A9396" width="159.45" height="130.068"/>
					
						<rect id="_x32_019ipadr_00000125577203495810268550000003050681800913404561_" x="33.047" y="395.679" fill="#E76F51" width="159.45" height="52.331"/>
					
						<rect id="_x32_019ipady_00000075153135572883794700000002217960602258957245_" x="194.32" y="264.094" fill="#EE9B00" width="62.869" height="183.915"/>
				</g>
				<rect x="191.025" y="329.186" fill="none" width="67.88" height="49.225"/>
				<g display="none">
					<text transform="matrix(1 0 0 1 214.8583 339.4519)" display="inline" font-family="'Roboto-Regular'" font-size="12px">468</text>
					<text transform="matrix(1 0 0 1 203.1542 353.052)" display="inline" font-family="'Roboto-Regular'" font-size="12px">full-time</text>
					<text transform="matrix(1 0 0 1 206.9159 366.6521)" display="inline" font-family="'Roboto-Regular'" font-size="12px">faculty </text>
				</g>
				<rect x="41.557" y="318.719" fill="none" width="133.021" height="37.809"/>
				<g display="none">
					<text transform="matrix(1 0 0 1 97.9608 328.9846)" display="inline" font-family="'Roboto-Regular'" font-size="12px">825 </text>
					<text transform="matrix(1 0 0 1 66.7216 342.5847)" display="inline" font-family="'Roboto-Regular'" font-size="12px">full-time faculty</text>
				</g>
				<rect x="41.557" y="409.443" fill="none" width="133.021" height="37.809"/>
				<g display="none">
					<text transform="matrix(1 0 0 1 97.9608 419.7097)" display="inline" font-family="'Roboto-Regular'" font-size="12px">337 </text>
					<text transform="matrix(1 0 0 1 66.7216 433.3093)" display="inline" font-family="'Roboto-Regular'" font-size="12px">full-time faculty</text>
				</g>
			</g>
			<rect x="58.86" y="206.733" fill="none" width="177.394" height="16.087"/>
			<g display="none">
				<text transform="matrix(1 0 0 1 58.8598 218.7091)" display="inline" font-family="'Roboto-Regular'" font-size="14px">T</text>
				<text transform="matrix(1 0 0 1 66.5365 218.7091)" display="inline" font-family="'Roboto-Regular'" font-size="14px">o</text>
				<text transform="matrix(1 0 0 1 74.5209 218.7091)" display="inline" font-family="'Roboto-Regular'" font-size="14px">t</text>
				<text transform="matrix(1 0 0 1 79.0941 218.7091)" display="inline" font-family="'Roboto-Regular'" font-size="14px">a</text>
				<text transform="matrix(1 0 0 1 86.7094 218.7091)" display="inline" font-family="'Roboto-Regular'" font-size="14px">l</text>
				<text transform="matrix(1 0 0 1 90.1068 218.7091)" display="inline" font-family="'Roboto-Regular'" font-size="14px">:</text>
				<text transform="matrix(1 0 0 1 93.4975 218.7091)" display="inline" font-family="'Roboto-Regular'" font-size="14px"> </text>
				<text transform="matrix(1 0 0 1 96.9633 218.7091)" display="inline" font-family="'Roboto-Regular'" font-size="14px">1</text>
				<text transform="matrix(1 0 0 1 104.8246 218.7091)" display="inline" font-family="'Roboto-Regular'" font-size="14px">,</text>
				<text transform="matrix(1 0 0 1 107.5727 218.7091)" display="inline" font-family="'Roboto-Regular'" font-size="14px">6</text>
				<text transform="matrix(1 0 0 1 115.434 218.7091)" display="inline" font-family="'Roboto-Regular'" font-size="14px">3</text>
				<text transform="matrix(1 0 0 1 123.2953 218.7091)" display="inline" font-family="'Roboto-Regular'" font-size="14px">0</text>
				<text transform="matrix(1 0 0 1 131.1566 218.7091)" display="inline" font-family="'Roboto-Regular'" font-size="14px"> </text>
				<text transform="matrix(1 0 0 1 134.6225 218.7091)" display="inline" font-family="'Roboto-Regular'" font-size="14px">f</text>
				<text transform="matrix(1 0 0 1 139.4828 218.7091)" display="inline" font-family="'Roboto-Regular'" font-size="14px">u</text>
				<text transform="matrix(1 0 0 1 147.2006 218.7091)" display="inline" font-family="'Roboto-Regular'" font-size="14px">l</text>
				<text transform="matrix(1 0 0 1 150.5981 218.7091)" display="inline" font-family="'Roboto-Regular'" font-size="14px">l</text>
				<text transform="matrix(1 0 0 1 153.9955 218.7091)" display="inline" font-family="'Roboto-Regular'" font-size="14px">-</text>
				<text transform="matrix(1 0 0 1 157.8578 218.7091)" display="inline" font-family="'Roboto-Regular'" font-size="14px">t</text>
				<text transform="matrix(1 0 0 1 162.4311 218.7091)" display="inline" font-family="'Roboto-Regular'" font-size="14px">i</text>
				<text transform="matrix(1 0 0 1 165.8285 218.7091)" display="inline" font-family="'Roboto-Regular'" font-size="14px">m</text>
				<text transform="matrix(1 0 0 1 178.099 218.7091)" display="inline" font-family="'Roboto-Regular'" font-size="14px">e</text>
				<text transform="matrix(1 0 0 1 185.516 218.7091)" display="inline" font-family="'Roboto-Regular'" font-size="14px"> </text>
				<text transform="matrix(1 0 0 1 188.9818 218.7091)" display="inline" font-family="'Roboto-Regular'" font-size="14px">f</text>
				<text transform="matrix(1 0 0 1 193.8422 218.7091)" display="inline" font-family="'Roboto-Regular'" font-size="14px">a</text>
				<text transform="matrix(1 0 0 1 201.4574 218.7091)" display="inline" font-family="'Roboto-Regular'" font-size="14px">c</text>
				<text transform="matrix(1 0 0 1 208.7856 218.7091)" display="inline" font-family="'Roboto-Regular'" font-size="14px">u</text>
				<text transform="matrix(1 0 0 1 216.5033 218.7091)" display="inline" font-family="'Roboto-Regular'" font-size="14px">l</text>
				<text transform="matrix(1 0 0 1 219.9008 218.7091)" display="inline" font-family="'Roboto-Regular'" font-size="14px">t</text>
				<text transform="matrix(1 0 0 1 224.474 218.7091)" display="inline" font-family="'Roboto-Regular'" font-size="14px">y</text>
			</g>
		</g>
	</g>
	<g id="p2018_00000103972579561377183580000011669851387048625805_">
		<g>
			<g>
				<g id="i2018_00000065040718484088377880000007439903944190455945_">
					
						<rect id="_x32_018ipadb_00000045597617120757097800000002802554708696861346_" x="32.005" y="264.094" fill="#0A9396" width="162.639" height="131.964"/>
					
						<rect id="_x32_018ipadr_00000029014830564244681720000018417220920828752305_" x="32.005" y="397.575" fill="#E76F51" width="162.639" height="50.434"/>
					
						<rect id="_x32_018ipady_00000105407209191112912250000009103954809929541292_" x="196.467" y="264.094" fill="#EE9B00" width="59.68" height="183.915"/>
				</g>
				<rect x="188.267" y="328.71" fill="none" width="67.88" height="49.225"/>
				<g display="none">
					<text transform="matrix(1 0 0 1 212.0996 338.9756)" display="inline" font-family="'Roboto-Regular'" font-size="12px">424</text>
					<text transform="matrix(1 0 0 1 200.3955 352.5757)" display="inline" font-family="'Roboto-Regular'" font-size="12px">full-time</text>
					<text transform="matrix(1 0 0 1 204.1573 366.1758)" display="inline" font-family="'Roboto-Regular'" font-size="12px">faculty </text>
				</g>
				<rect x="41.799" y="318.243" fill="none" width="133.021" height="37.809"/>
				<g display="none">
					<text transform="matrix(1 0 0 1 98.2022 328.5083)" display="inline" font-family="'Roboto-Regular'" font-size="12px">813 </text>
					<text transform="matrix(1 0 0 1 66.9629 342.1084)" display="inline" font-family="'Roboto-Regular'" font-size="12px">full-time faculty</text>
				</g>
				<rect x="41.799" y="408.967" fill="none" width="133.021" height="37.809"/>
				<g display="none">
					<text transform="matrix(1 0 0 1 98.2022 419.2334)" display="inline" font-family="'Roboto-Regular'" font-size="12px">318</text>
					<text transform="matrix(1 0 0 1 66.9629 432.833)" display="inline" font-family="'Roboto-Regular'" font-size="12px">full-time faculty</text>
				</g>
			</g>
			<rect x="58.86" y="206.733" fill="none" width="177.394" height="16.087"/>
			<g display="none">
				<text transform="matrix(1 0 0 1 58.8598 218.7091)" display="inline" font-family="'Roboto-Regular'" font-size="14px">T</text>
				<text transform="matrix(1 0 0 1 66.5365 218.7091)" display="inline" font-family="'Roboto-Regular'" font-size="14px">o</text>
				<text transform="matrix(1 0 0 1 74.5209 218.7091)" display="inline" font-family="'Roboto-Regular'" font-size="14px">t</text>
				<text transform="matrix(1 0 0 1 79.0941 218.7091)" display="inline" font-family="'Roboto-Regular'" font-size="14px">a</text>
				<text transform="matrix(1 0 0 1 86.7094 218.7091)" display="inline" font-family="'Roboto-Regular'" font-size="14px">l</text>
				<text transform="matrix(1 0 0 1 90.1068 218.7091)" display="inline" font-family="'Roboto-Regular'" font-size="14px">:</text>
				<text transform="matrix(1 0 0 1 93.4975 218.7091)" display="inline" font-family="'Roboto-Regular'" font-size="14px"> </text>
				<text transform="matrix(1 0 0 1 96.9633 218.7091)" display="inline" font-family="'Roboto-Regular'" font-size="14px">1</text>
				<text transform="matrix(1 0 0 1 104.8246 218.7091)" display="inline" font-family="'Roboto-Regular'" font-size="14px">,</text>
				<text transform="matrix(1 0 0 1 107.5727 218.7091)" display="inline" font-family="'Roboto-Regular'" font-size="14px">5</text>
				<text transform="matrix(1 0 0 1 115.434 218.7091)" display="inline" font-family="'Roboto-Regular'" font-size="14px">5</text>
				<text transform="matrix(1 0 0 1 123.2953 218.7091)" display="inline" font-family="'Roboto-Regular'" font-size="14px">5</text>
				<text transform="matrix(1 0 0 1 131.1566 218.7091)" display="inline" font-family="'Roboto-Regular'" font-size="14px"> </text>
				<text transform="matrix(1 0 0 1 134.6225 218.7091)" display="inline" font-family="'Roboto-Regular'" font-size="14px">f</text>
				<text transform="matrix(1 0 0 1 139.4828 218.7091)" display="inline" font-family="'Roboto-Regular'" font-size="14px">u</text>
				<text transform="matrix(1 0 0 1 147.2006 218.7091)" display="inline" font-family="'Roboto-Regular'" font-size="14px">l</text>
				<text transform="matrix(1 0 0 1 150.5981 218.7091)" display="inline" font-family="'Roboto-Regular'" font-size="14px">l</text>
				<text transform="matrix(1 0 0 1 153.9955 218.7091)" display="inline" font-family="'Roboto-Regular'" font-size="14px">-</text>
				<text transform="matrix(1 0 0 1 157.8578 218.7091)" display="inline" font-family="'Roboto-Regular'" font-size="14px">t</text>
				<text transform="matrix(1 0 0 1 162.4311 218.7091)" display="inline" font-family="'Roboto-Regular'" font-size="14px">i</text>
				<text transform="matrix(1 0 0 1 165.8285 218.7091)" display="inline" font-family="'Roboto-Regular'" font-size="14px">m</text>
				<text transform="matrix(1 0 0 1 178.099 218.7091)" display="inline" font-family="'Roboto-Regular'" font-size="14px">e</text>
				<text transform="matrix(1 0 0 1 185.516 218.7091)" display="inline" font-family="'Roboto-Regular'" font-size="14px"> </text>
				<text transform="matrix(1 0 0 1 188.9818 218.7091)" display="inline" font-family="'Roboto-Regular'" font-size="14px">f</text>
				<text transform="matrix(1 0 0 1 193.8422 218.7091)" display="inline" font-family="'Roboto-Regular'" font-size="14px">a</text>
				<text transform="matrix(1 0 0 1 201.4574 218.7091)" display="inline" font-family="'Roboto-Regular'" font-size="14px">c</text>
				<text transform="matrix(1 0 0 1 208.7856 218.7091)" display="inline" font-family="'Roboto-Regular'" font-size="14px">u</text>
				<text transform="matrix(1 0 0 1 216.5033 218.7091)" display="inline" font-family="'Roboto-Regular'" font-size="14px">l</text>
				<text transform="matrix(1 0 0 1 219.9008 218.7091)" display="inline" font-family="'Roboto-Regular'" font-size="14px">t</text>
				<text transform="matrix(1 0 0 1 224.474 218.7091)" display="inline" font-family="'Roboto-Regular'" font-size="14px">y</text>
			</g>
		</g>
	</g>
</g>
<style>
#g-lecturer_linechart-Artboard_8-interactives-img rect, #g-lecturer_linechart-Artboard_8-interactives-img circle, #g-lecturer_linechart-Artboard_8-interactives-img path, #g-lecturer_linechart-Artboard_8-interactives-img line, #g-lecturer_linechart-Artboard_8-interactives-img polyline, #g-lecturer_linechart-Artboard_8-interactives-img polygon { vector-effect: non-scaling-stroke; }
</style>
</svg>

