<?xml version="1.0" encoding="utf-8"?>
<!-- Generator: Adobe Illustrator 26.5.0, SVG Export Plug-In . SVG Version: 6.00 Build 0)  -->
<svg version="1.2" baseProfile="tiny" id="g-lecturer_linechart-Artboard_7-interactives-img" xmlns="http://www.w3.org/2000/svg" xmlns:xlink="http://www.w3.org/1999/xlink"
	 x="0px" y="0px" viewBox="0 0 600 513.093" overflow="visible" xml:space="preserve">
<g>
	<rect x="12.436" y="243.436" fill="none" width="162.639" height="131.964"/>
	<g id="i2018_00000167358013244855597300000003146838701667524263_">
		
			<rect id="_x32_018ipadb_00000073721401838624444520000011662082621811118258_" x="12.436" y="243.436" fill="#0A9396" width="162.639" height="131.964"/>
		
			<rect id="_x32_018ipadr_00000031184511296446302940000017564342216574224286_" x="12.436" y="376.917" fill="#E76F51" width="162.639" height="50.434"/>
		
			<rect id="_x32_018ipady_00000049197910036911622320000006716152732824895420_" x="176.898" y="243.436" fill="#EE9B00" width="59.68" height="183.915"/>
	</g>
	<rect x="176.898" y="243.436" fill="none" width="59.68" height="183.915"/>
	<g id="i2019_00000181086551412545079070000016230998202200799121_">
		
			<rect id="_x32_019ipadb_00000163037260051671928750000010477758840838058404_" x="12.436" y="243.436" fill="#0A9396" width="159.45" height="130.068"/>
		
			<rect id="_x32_019ipadr_00000165195701746951705160000007082362875339730064_" x="12.436" y="375.021" fill="#E76F51" width="159.45" height="52.331"/>
		
			<rect id="_x32_019ipady_00000072278345609025726580000013990447970082064022_" x="173.709" y="243.436" fill="#EE9B00" width="62.869" height="183.915"/>
	</g>
	<rect x="12.436" y="243.436" fill="none" width="159.906" height="129.689"/>
	<rect x="12.436" y="374.642" fill="none" width="159.906" height="52.71"/>
	<rect x="174.164" y="243.436" fill="none" width="62.413" height="183.915"/>
	<g id="i2020_00000103261068086128261640000017611911320449412498_">
		
			<rect id="_x32_020ipadr_00000145022056622826764270000018324236728182455695_" x="12.436" y="374.642" fill="#E76F51" width="159.906" height="52.71"/>
		
			<rect id="_x32_020ipady_00000072246168742200585990000001297189616965796999_" x="174.164" y="243.436" fill="#EE9B00" width="62.413" height="183.915"/>
		
			<rect id="_x32_020ipadb_00000123438103159175305780000010928580294319636913_" x="12.436" y="243.436" fill="#0A9396" width="159.906" height="129.689"/>
	</g>
	<rect x="12.436" y="243.436" fill="none" width="158.539" height="137.652"/>
	<rect x="12.436" y="382.605" fill="none" width="158.539" height="44.746"/>
	<g id="i2021_00000055666855267720934190000011088836491796486048_">
		
			<rect id="_x32_021ipadb_00000018947580664990638400000008547932186377349545_" x="12.436" y="243.436" fill="#0A9396" width="158.539" height="137.652"/>
		
			<rect id="_x32_021ipadr_00000025402761188912654280000015520036934924071564_" x="12.436" y="382.605" fill="#E76F51" width="158.539" height="44.746"/>
		
			<rect id="_x32_021ipady_00000005947446399407433080000004001675194517911970_" x="172.798" y="243.436" fill="#EE9B00" width="63.78" height="183.915"/>
	</g>
	<rect x="172.798" y="243.436" fill="none" width="63.78" height="183.915"/>
	<rect x="12.436" y="243.436" fill="none" width="155.35" height="136.135"/>
	<rect x="12.436" y="381.088" fill="none" width="155.35" height="46.263"/>
	<g id="i2022_00000092449699791640767990000017702101976818031795_">
		
			<rect id="_x32_022ipadb_00000177468142301146646310000009303290274030478240_" x="12.436" y="243.436" fill="#0A9396" width="155.35" height="136.135"/>
		
			<rect id="_x32_022ipadr_00000001622234157860143030000004856123761099629720_" x="12.436" y="381.088" fill="#E76F51" width="155.35" height="46.263"/>
		
			<rect id="_x32_022ipady_00000029746570567702617290000009371718137377551005_" x="169.609" y="243.436" fill="#EE9B00" width="66.969" height="183.915"/>
	</g>
	<rect x="169.609" y="243.436" fill="none" width="66.969" height="183.915"/>
	<path id="b6001stl_00000102537571004116628410000004261175432600104594_" fill="none" stroke="#0A9396" d="M363.85,198.976
		l-70.858,4.52"/>
	<path id="b6002ndl_00000096061055370964893180000016200968731396724633_" fill="none" stroke="#0A9396" d="M434.708,194.455
		l-70.858,4.52"/>
	<path id="b6003rdl_00000183240730103959858700000011586513027971176593_" fill="none" stroke="#0A9396" d="M505.567,192.49
		l-70.858,1.965"/>
	<path id="b6004thl_00000093134694971269733870000015581247920113059504_" fill="none" stroke="#0A9396" d="M576.425,190.525
		l-70.858,1.965"/>
	<circle id="b6001_00000149375002036793350070000002023035630467871627_" fill="#0A9396" cx="292.992" cy="203.496" r="3.188"/>
	<circle id="b6002_00000092431048882388740790000008944069469199716774_" fill="#0A9396" cx="363.85" cy="198.779" r="3.188"/>
	<circle id="b6003_00000132055981018382345700000003509798684367110530_" fill="#0A9396" cx="434.708" cy="194.455" r="3.188"/>
	<circle id="b6004_00000049216464249646230450000008046941741011551121_" fill="#0A9396" cx="505.567" cy="192.49" r="3.188"/>
	<circle id="b6005_00000019664754742795213400000007346307527611751298_" fill="#0A9396" cx="576.425" cy="190.525" r="3.188"/>
	<path id="r600lastl_00000170239963572483140040000009031611818751026605_" fill="none" stroke="#E76F51" d="M505.567,412.616
		l70.858-5.503"/>
	<path id="r6003rdl_00000011006733086462996480000017776234863563125433_" fill="none" stroke="#E76F51" d="M434.708,386.673
		l70.858,25.943"/>
	<path id="r6002ndl_00000181773479711750073060000011591634144171041935_" fill="none" stroke="#E76F51" d="M363.85,390.603
		l70.858-3.931"/>
	<path id="r6001stl_00000121982195759548237910000009462322798510315426_" fill="none" stroke="#E76F51" d="M292.992,398.072
		l70.858-7.469"/>
	<circle id="r6001_00000134231452000380246920000012831815673437297809_" fill="#E76F51" cx="292.992" cy="398.072" r="3.188"/>
	<circle id="r6002_00000061456234222033359100000004812981730506131628_" fill="#E76F51" cx="363.85" cy="390.603" r="3.188"/>
	<circle id="r6003_00000079452900789013074250000004240855778995571642_" fill="#E76F51" cx="434.708" cy="386.673" r="3.188"/>
	<circle id="r6004_00000061440829604531232580000010229984522827934398_" fill="#E76F51" cx="505.567" cy="412.616" r="3.188"/>
	<circle id="r6005_00000120558235546668537260000017512647236335617974_" fill="#E76F51" cx="576.425" cy="407.113" r="3.188"/>
	<path id="y600lastl_00000068654848447961518740000006967493812350836878_" fill="none" stroke="#EE9B00" d="M505.567,341.861
		l70.858-15.723"/>
	<path id="y6003rdl_00000142857226496121177780000008865416179815721390_" fill="none" stroke="#EE9B00" d="M434.708,338.716
		l70.858,3.145"/>
	<path id="y6002nd_00000176024224765468398430000005459304887323630774_" fill="none" stroke="#EE9B00" d="M363.85,339.11
		l70.858-0.393"/>
	<path id="y6001stl_00000134209743471158564460000013938398824151651234_" fill="none" stroke="#EE9B00" d="M292.992,356.405
		l70.858-17.296"/>
	<circle id="y6001_00000116918300532026546740000004737172190005841855_" fill="#EE9B00" cx="292.992" cy="356.405" r="3.188"/>
	<circle id="y6002_00000159458218407176739790000012319154282487475087_" fill="#EE9B00" cx="363.85" cy="339.11" r="3.188"/>
	<circle id="y6003_00000029763513496164497730000004687268708513870258_" fill="#EE9B00" cx="434.708" cy="338.716" r="3.188"/>
	<circle id="y6004_00000142898654214600620980000014148001441647436958_" fill="#EE9B00" cx="505.567" cy="341.861" r="3.188"/>
	<circle id="y6005_00000021832489626423478390000008119157465970416575_" fill="#EE9B00" cx="576.425" cy="326.138" r="3.188"/>
	<g id="itext2019_00000158734944223493561450000001794898074776650374_">
		<g id="itext2022_00000140709004219332209340000012499187540446764698_">
			<rect x="169.153" y="310.267" fill="none" width="67.88" height="49.225"/>
			<g display="none">
				<text transform="matrix(1 0 0 1 192.9858 320.5327)" display="inline" font-family="'Roboto-Regular'" font-size="12px">501</text>
				<text transform="matrix(1 0 0 1 181.2817 334.1328)" display="inline" font-family="'Roboto-Regular'" font-size="12px">full-time</text>
				<text transform="matrix(1 0 0 1 185.0434 347.7329)" display="inline" font-family="'Roboto-Regular'" font-size="12px">faculty </text>
			</g>
			<rect x="22.685" y="299.8" fill="none" width="133.021" height="37.809"/>
			<g display="none">
				<text transform="matrix(1 0 0 1 79.0884 310.0654)" display="inline" font-family="'Roboto-Regular'" font-size="12px">846 </text>
				<text transform="matrix(1 0 0 1 47.8491 323.6655)" display="inline" font-family="'Roboto-Regular'" font-size="12px">full-time faculty</text>
			</g>
			<rect x="37.64" y="186.009" fill="none" width="177.394" height="16.087"/>
			<g display="none">
				<text transform="matrix(1 0 0 1 37.6401 197.9848)" display="inline" font-family="'Roboto-Regular'" font-size="14px">T</text>
				<text transform="matrix(1 0 0 1 45.3169 197.9848)" display="inline" font-family="'Roboto-Regular'" font-size="14px">o</text>
				<text transform="matrix(1 0 0 1 53.3013 197.9848)" display="inline" font-family="'Roboto-Regular'" font-size="14px">t</text>
				<text transform="matrix(1 0 0 1 57.8745 197.9848)" display="inline" font-family="'Roboto-Regular'" font-size="14px">a</text>
				<text transform="matrix(1 0 0 1 65.4897 197.9848)" display="inline" font-family="'Roboto-Regular'" font-size="14px">l</text>
				<text transform="matrix(1 0 0 1 68.8872 197.9848)" display="inline" font-family="'Roboto-Regular'" font-size="14px">:</text>
				<text transform="matrix(1 0 0 1 72.2778 197.9848)" display="inline" font-family="'Roboto-Regular'" font-size="14px"> </text>
				<text transform="matrix(1 0 0 1 75.7436 197.9848)" display="inline" font-family="'Roboto-Regular'" font-size="14px">1</text>
				<text transform="matrix(1 0 0 1 83.605 197.9848)" display="inline" font-family="'Roboto-Regular'" font-size="14px">,</text>
				<text transform="matrix(1 0 0 1 86.353 197.9848)" display="inline" font-family="'Roboto-Regular'" font-size="14px">6</text>
				<text transform="matrix(1 0 0 1 94.2143 197.9848)" display="inline" font-family="'Roboto-Regular'" font-size="14px">4</text>
				<text transform="matrix(1 0 0 1 102.0757 197.9848)" display="inline" font-family="'Roboto-Regular'" font-size="14px">2</text>
				<text transform="matrix(1 0 0 1 109.937 197.9848)" display="inline" font-family="'Roboto-Regular'" font-size="14px"> </text>
				<text transform="matrix(1 0 0 1 113.4028 197.9848)" display="inline" font-family="'Roboto-Regular'" font-size="14px">f</text>
				<text transform="matrix(1 0 0 1 118.2632 197.9848)" display="inline" font-family="'Roboto-Regular'" font-size="14px">u</text>
				<text transform="matrix(1 0 0 1 125.9809 197.9848)" display="inline" font-family="'Roboto-Regular'" font-size="14px">l</text>
				<text transform="matrix(1 0 0 1 129.3784 197.9848)" display="inline" font-family="'Roboto-Regular'" font-size="14px">l</text>
				<text transform="matrix(1 0 0 1 132.7759 197.9848)" display="inline" font-family="'Roboto-Regular'" font-size="14px">-</text>
				<text transform="matrix(1 0 0 1 136.6382 197.9848)" display="inline" font-family="'Roboto-Regular'" font-size="14px">t</text>
				<text transform="matrix(1 0 0 1 141.2114 197.9848)" display="inline" font-family="'Roboto-Regular'" font-size="14px">i</text>
				<text transform="matrix(1 0 0 1 144.6089 197.9848)" display="inline" font-family="'Roboto-Regular'" font-size="14px">m</text>
				<text transform="matrix(1 0 0 1 156.8794 197.9848)" display="inline" font-family="'Roboto-Regular'" font-size="14px">e</text>
				<text transform="matrix(1 0 0 1 164.2964 197.9848)" display="inline" font-family="'Roboto-Regular'" font-size="14px"> </text>
				<text transform="matrix(1 0 0 1 167.7622 197.9848)" display="inline" font-family="'Roboto-Regular'" font-size="14px">f</text>
				<text transform="matrix(1 0 0 1 172.6225 197.9848)" display="inline" font-family="'Roboto-Regular'" font-size="14px">a</text>
				<text transform="matrix(1 0 0 1 180.2378 197.9848)" display="inline" font-family="'Roboto-Regular'" font-size="14px">c</text>
				<text transform="matrix(1 0 0 1 187.5659 197.9848)" display="inline" font-family="'Roboto-Regular'" font-size="14px">u</text>
				<text transform="matrix(1 0 0 1 195.2837 197.9848)" display="inline" font-family="'Roboto-Regular'" font-size="14px">l</text>
				<text transform="matrix(1 0 0 1 198.6811 197.9848)" display="inline" font-family="'Roboto-Regular'" font-size="14px">t</text>
				<text transform="matrix(1 0 0 1 203.2544 197.9848)" display="inline" font-family="'Roboto-Regular'" font-size="14px">y</text>
			</g>
			<rect x="22.685" y="390.524" fill="none" width="133.021" height="37.809"/>
			<g display="none">
				<text transform="matrix(1 0 0 1 79.0884 400.7905)" display="inline" font-family="'Roboto-Regular'" font-size="12px">295 </text>
				<text transform="matrix(1 0 0 1 47.8491 414.3901)" display="inline" font-family="'Roboto-Regular'" font-size="12px">full-time faculty</text>
			</g>
			<rect x="8.047" y="98.918" fill="none" width="483.032" height="27.035"/>
			<text transform="matrix(1 0 0 1 8.047 112.6048)" display="none" font-family="'Roboto-Bold'" font-size="16px">Number of faculty by tenure status: 2022</text>
		</g>
	</g>
</g>
<style>
#g-lecturer_linechart-Artboard_7-interactives-img rect, #g-lecturer_linechart-Artboard_7-interactives-img circle, #g-lecturer_linechart-Artboard_7-interactives-img path, #g-lecturer_linechart-Artboard_7-interactives-img line, #g-lecturer_linechart-Artboard_7-interactives-img polyline, #g-lecturer_linechart-Artboard_7-interactives-img polygon { vector-effect: non-scaling-stroke; }
</style>
</svg>

