<?xml version="1.0" encoding="utf-8"?>
<!-- Generator: Adobe Illustrator 26.5.0, SVG Export Plug-In . SVG Version: 6.00 Build 0)  -->
<svg version="1.2" baseProfile="tiny" id="g-linechart-Artboard_7-interactives-img" xmlns="http://www.w3.org/2000/svg" xmlns:xlink="http://www.w3.org/1999/xlink"
	 x="0px" y="0px" viewBox="0 0 600 513.093" overflow="visible" xml:space="preserve">
<g>
	<rect x="12.436" y="243.436" fill="none" width="162.639" height="131.964"/>
	<g id="i2018_00000089550104718458112700000001389132609932722055_">
		
			<rect id="_x32_018ipadb_00000145037536398637728290000016839293401656376723_" x="12.436" y="243.436" fill="#0A9396" width="162.639" height="131.964"/>
		
			<rect id="_x32_018ipadr_00000128468942571369635390000002990494425938932388_" x="12.436" y="376.917" fill="#E76F51" width="162.639" height="50.434"/>
		
			<rect id="_x32_018ipady_00000103256519105895873850000015442192285159912107_" x="176.898" y="243.436" fill="#EE9B00" width="59.68" height="183.915"/>
	</g>
	<rect x="176.898" y="243.436" fill="none" width="59.68" height="183.915"/>
	<g id="i2019_00000142871552949457514620000010379465028268331681_">
		
			<rect id="_x32_019ipadb_00000016786154206876376060000005936798156509606062_" x="12.436" y="243.436" fill="#0A9396" width="159.45" height="130.068"/>
		
			<rect id="_x32_019ipadr_00000012465143974861961760000013558536551388392851_" x="12.436" y="375.021" fill="#E76F51" width="159.45" height="52.331"/>
		
			<rect id="_x32_019ipady_00000057826390998746818150000013235085401795411868_" x="173.709" y="243.436" fill="#EE9B00" width="62.869" height="183.915"/>
	</g>
	<rect x="12.436" y="243.436" fill="none" width="159.906" height="129.689"/>
	<rect x="12.436" y="374.642" fill="none" width="159.906" height="52.71"/>
	<rect x="174.164" y="243.436" fill="none" width="62.413" height="183.915"/>
	<g id="i2020_00000045582703237127272230000004107097453253767608_">
		
			<rect id="_x32_020ipadr_00000071546146591413598280000006393824441323049911_" x="12.436" y="374.642" fill="#E76F51" width="159.906" height="52.71"/>
		
			<rect id="_x32_020ipady_00000065754468320804290880000003455088773142912957_" x="174.164" y="243.436" fill="#EE9B00" width="62.413" height="183.915"/>
		
			<rect id="_x32_020ipadb_00000016760590681907640500000014985246628965603243_" x="12.436" y="243.436" fill="#0A9396" width="159.906" height="129.689"/>
	</g>
	<rect x="12.436" y="243.436" fill="none" width="158.539" height="137.652"/>
	<rect x="12.436" y="382.605" fill="none" width="158.539" height="44.746"/>
	<g id="i2021_00000139270380055620968160000001758545874175483524_">
		
			<rect id="_x32_021ipadb_00000018223721649312850400000001206333850122270381_" x="12.436" y="243.436" fill="#0A9396" width="158.539" height="137.652"/>
		
			<rect id="_x32_021ipadr_00000021832519607482963040000007582760189665219985_" x="12.436" y="382.605" fill="#E76F51" width="158.539" height="44.746"/>
		
			<rect id="_x32_021ipady_00000036243799951270624730000015652906171808334222_" x="172.798" y="243.436" fill="#EE9B00" width="63.78" height="183.915"/>
	</g>
	<rect x="172.798" y="243.436" fill="none" width="63.78" height="183.915"/>
	<rect x="12.436" y="243.436" fill="none" width="155.35" height="136.135"/>
	<rect x="12.436" y="381.088" fill="none" width="155.35" height="46.263"/>
	<g id="i2022_00000059991354928628362100000005494756620272835997_">
		
			<rect id="_x32_022ipadb_00000056414206745256261650000018248737198659525802_" x="12.436" y="243.436" fill="#0A9396" width="155.35" height="136.135"/>
		
			<rect id="_x32_022ipadr_00000170259033536798237830000000715906563607703181_" x="12.436" y="381.088" fill="#E76F51" width="155.35" height="46.263"/>
		
			<rect id="_x32_022ipady_00000148650309761067131560000002003810850557115788_" x="169.609" y="243.436" fill="#EE9B00" width="66.969" height="183.915"/>
	</g>
	<rect x="169.609" y="243.436" fill="none" width="66.969" height="183.915"/>
	<path id="b6001stl_00000150815912559238450770000006931009291647452310_" fill="none" stroke="#0A9396" d="M363.85,198.976
		l-70.858,4.52"/>
	<path id="b6002ndl_00000055687163885626719280000009702597687349762205_" fill="none" stroke="#0A9396" d="M434.708,194.455
		l-70.858,4.52"/>
	<path id="b6003rdl_00000003071809425640492980000018402805806932269952_" fill="none" stroke="#0A9396" d="M505.567,192.49
		l-70.858,1.965"/>
	<path id="b6004thl_00000172435907862185596800000007065419117100224396_" fill="none" stroke="#0A9396" d="M576.425,190.525
		l-70.858,1.965"/>
	<circle id="b6001_00000077292902337368369410000014377588371002714512_" fill="#0A9396" cx="292.992" cy="203.496" r="3.188"/>
	<circle id="b6002_00000064314160084075296830000007448507486208265390_" fill="#0A9396" cx="363.85" cy="198.779" r="3.188"/>
	<circle id="b6003_00000138550463586814151030000007351309913557335189_" fill="#0A9396" cx="434.708" cy="194.455" r="3.188"/>
	<circle id="b6004_00000177485156331443559820000004000627086318305195_" fill="#0A9396" cx="505.567" cy="192.49" r="3.188"/>
	<circle id="b6005_00000144306600096936728250000015879951664422613416_" fill="#0A9396" cx="576.425" cy="190.525" r="3.188"/>
	<path id="r600lastl_00000117649157510348496660000000027490287479854746_" fill="none" stroke="#E76F51" d="M505.567,412.616
		l70.858-5.503"/>
	<path id="r6003rdl_00000168111298913682861170000013882121511688342968_" fill="none" stroke="#E76F51" d="M434.708,386.673
		l70.858,25.943"/>
	<path id="r6002ndl_00000088819320642099995050000011502673014338880697_" fill="none" stroke="#E76F51" d="M363.85,390.603
		l70.858-3.931"/>
	<path id="r6001stl_00000180348577053816436690000013010294533330506406_" fill="none" stroke="#E76F51" d="M292.992,398.072
		l70.858-7.469"/>
	<circle id="r6001_00000088827308964564106590000001665575723964779930_" fill="#E76F51" cx="292.992" cy="398.072" r="3.188"/>
	<circle id="r6002_00000168097968166430531010000015879623959410185137_" fill="#E76F51" cx="363.85" cy="390.603" r="3.188"/>
	<circle id="r6003_00000063591656699468798340000011808372553650486948_" fill="#E76F51" cx="434.708" cy="386.673" r="3.188"/>
	<circle id="r6004_00000113334544688593597600000016749133448899506560_" fill="#E76F51" cx="505.567" cy="412.616" r="3.188"/>
	<circle id="r6005_00000132776430803431667140000000260210797148069776_" fill="#E76F51" cx="576.425" cy="407.113" r="3.188"/>
	<path id="y600lastl_00000085959763207599251460000016523746685189719700_" fill="none" stroke="#EE9B00" d="M505.567,341.861
		l70.858-15.723"/>
	<path id="y6003rdl_00000169556589453955457670000000571543395183200898_" fill="none" stroke="#EE9B00" d="M434.708,338.716
		l70.858,3.145"/>
	<path id="y6002nd_00000140697932493063645730000017380119912650372999_" fill="none" stroke="#EE9B00" d="M363.85,339.11
		l70.858-0.393"/>
	<path id="y6001stl_00000036231040208835879740000014934156556452702897_" fill="none" stroke="#EE9B00" d="M292.992,356.405
		l70.858-17.296"/>
	<circle id="y6001_00000093898636418148336410000016378091450039258541_" fill="#EE9B00" cx="292.992" cy="356.405" r="3.188"/>
	<circle id="y6002_00000007428828028292370880000001811305752802984593_" fill="#EE9B00" cx="363.85" cy="339.11" r="3.188"/>
	<circle id="y6003_00000079463830545660689340000009429809734189535397_" fill="#EE9B00" cx="434.708" cy="338.716" r="3.188"/>
	<circle id="y6004_00000075882504694971774740000017857346809448728741_" fill="#EE9B00" cx="505.567" cy="341.861" r="3.188"/>
	<circle id="y6005_00000100354375864942327010000014946471133767118982_" fill="#EE9B00" cx="576.425" cy="326.138" r="3.188"/>
	<g id="itext2019_00000090983431197775047740000011204404971287788977_">
		<g id="itext2022_00000174561674310026812850000012221782167211646633_">
			<rect x="169.153" y="310.267" fill="none" width="67.88" height="49.225"/>
			<g display="none">
				<text transform="matrix(1 0 0 1 192.9858 320.5327)" display="inline" font-family="'Roboto-Regular'" font-size="12px">501</text>
				<text transform="matrix(1 0 0 1 181.2817 334.1328)" display="inline" font-family="'Roboto-Regular'" font-size="12px">full-time</text>
				<text transform="matrix(1 0 0 1 185.0434 347.7329)" display="inline" font-family="'Roboto-Regular'" font-size="12px">faculty </text>
			</g>
			<rect x="22.685" y="299.8" fill="none" width="133.021" height="37.809"/>
			<g display="none">
				<text transform="matrix(1 0 0 1 79.0884 310.0654)" display="inline" font-family="'Roboto-Regular'" font-size="12px">846 </text>
				<text transform="matrix(1 0 0 1 47.8491 323.6655)" display="inline" font-family="'Roboto-Regular'" font-size="12px">full-time faculty</text>
			</g>
			<rect x="37.64" y="186.009" fill="none" width="177.394" height="16.087"/>
			<g display="none">
				<text transform="matrix(1 0 0 1 37.6401 197.9848)" display="inline" font-family="'Roboto-Regular'" font-size="14px">T</text>
				<text transform="matrix(1 0 0 1 45.3169 197.9848)" display="inline" font-family="'Roboto-Regular'" font-size="14px">o</text>
				<text transform="matrix(1 0 0 1 53.3013 197.9848)" display="inline" font-family="'Roboto-Regular'" font-size="14px">t</text>
				<text transform="matrix(1 0 0 1 57.8745 197.9848)" display="inline" font-family="'Roboto-Regular'" font-size="14px">a</text>
				<text transform="matrix(1 0 0 1 65.4897 197.9848)" display="inline" font-family="'Roboto-Regular'" font-size="14px">l</text>
				<text transform="matrix(1 0 0 1 68.8872 197.9848)" display="inline" font-family="'Roboto-Regular'" font-size="14px">:</text>
				<text transform="matrix(1 0 0 1 72.2778 197.9848)" display="inline" font-family="'Roboto-Regular'" font-size="14px"> </text>
				<text transform="matrix(1 0 0 1 75.7436 197.9848)" display="inline" font-family="'Roboto-Regular'" font-size="14px">1</text>
				<text transform="matrix(1 0 0 1 83.605 197.9848)" display="inline" font-family="'Roboto-Regular'" font-size="14px">,</text>
				<text transform="matrix(1 0 0 1 86.353 197.9848)" display="inline" font-family="'Roboto-Regular'" font-size="14px">6</text>
				<text transform="matrix(1 0 0 1 94.2143 197.9848)" display="inline" font-family="'Roboto-Regular'" font-size="14px">4</text>
				<text transform="matrix(1 0 0 1 102.0757 197.9848)" display="inline" font-family="'Roboto-Regular'" font-size="14px">2</text>
				<text transform="matrix(1 0 0 1 109.937 197.9848)" display="inline" font-family="'Roboto-Regular'" font-size="14px"> </text>
				<text transform="matrix(1 0 0 1 113.4028 197.9848)" display="inline" font-family="'Roboto-Regular'" font-size="14px">f</text>
				<text transform="matrix(1 0 0 1 118.2632 197.9848)" display="inline" font-family="'Roboto-Regular'" font-size="14px">u</text>
				<text transform="matrix(1 0 0 1 125.9809 197.9848)" display="inline" font-family="'Roboto-Regular'" font-size="14px">l</text>
				<text transform="matrix(1 0 0 1 129.3784 197.9848)" display="inline" font-family="'Roboto-Regular'" font-size="14px">l</text>
				<text transform="matrix(1 0 0 1 132.7759 197.9848)" display="inline" font-family="'Roboto-Regular'" font-size="14px">-</text>
				<text transform="matrix(1 0 0 1 136.6382 197.9848)" display="inline" font-family="'Roboto-Regular'" font-size="14px">t</text>
				<text transform="matrix(1 0 0 1 141.2114 197.9848)" display="inline" font-family="'Roboto-Regular'" font-size="14px">i</text>
				<text transform="matrix(1 0 0 1 144.6089 197.9848)" display="inline" font-family="'Roboto-Regular'" font-size="14px">m</text>
				<text transform="matrix(1 0 0 1 156.8794 197.9848)" display="inline" font-family="'Roboto-Regular'" font-size="14px">e</text>
				<text transform="matrix(1 0 0 1 164.2964 197.9848)" display="inline" font-family="'Roboto-Regular'" font-size="14px"> </text>
				<text transform="matrix(1 0 0 1 167.7622 197.9848)" display="inline" font-family="'Roboto-Regular'" font-size="14px">f</text>
				<text transform="matrix(1 0 0 1 172.6225 197.9848)" display="inline" font-family="'Roboto-Regular'" font-size="14px">a</text>
				<text transform="matrix(1 0 0 1 180.2378 197.9848)" display="inline" font-family="'Roboto-Regular'" font-size="14px">c</text>
				<text transform="matrix(1 0 0 1 187.5659 197.9848)" display="inline" font-family="'Roboto-Regular'" font-size="14px">u</text>
				<text transform="matrix(1 0 0 1 195.2837 197.9848)" display="inline" font-family="'Roboto-Regular'" font-size="14px">l</text>
				<text transform="matrix(1 0 0 1 198.6811 197.9848)" display="inline" font-family="'Roboto-Regular'" font-size="14px">t</text>
				<text transform="matrix(1 0 0 1 203.2544 197.9848)" display="inline" font-family="'Roboto-Regular'" font-size="14px">y</text>
			</g>
			<rect x="22.685" y="390.524" fill="none" width="133.021" height="37.809"/>
			<g display="none">
				<text transform="matrix(1 0 0 1 79.0884 400.7905)" display="inline" font-family="'Roboto-Regular'" font-size="12px">295 </text>
				<text transform="matrix(1 0 0 1 47.8491 414.3901)" display="inline" font-family="'Roboto-Regular'" font-size="12px">full-time faculty</text>
			</g>
			<rect x="8.047" y="98.918" fill="none" width="483.032" height="27.035"/>
			<text transform="matrix(1 0 0 1 8.047 112.6048)" display="none" font-family="'Roboto-Bold'" font-size="16px">Number of faculty by tenure status: 2022</text>
		</g>
	</g>
</g>
<style>
#g-linechart-Artboard_7-interactives-img rect, #g-linechart-Artboard_7-interactives-img circle, #g-linechart-Artboard_7-interactives-img path, #g-linechart-Artboard_7-interactives-img line, #g-linechart-Artboard_7-interactives-img polyline, #g-linechart-Artboard_7-interactives-img polygon { vector-effect: non-scaling-stroke; }
</style>
</svg>

