<?xml version="1.0" encoding="utf-8"?>
<!-- Generator: Adobe Illustrator 26.5.0, SVG Export Plug-In . SVG Version: 6.00 Build 0)  -->
<svg version="1.2" baseProfile="tiny" id="g-linechart-Artboard_8-interactives-img" xmlns="http://www.w3.org/2000/svg" xmlns:xlink="http://www.w3.org/1999/xlink"
	 x="0px" y="0px" viewBox="0 0 300 883.065" overflow="visible" xml:space="preserve">
<g>
	<path id="b3002nd_00000002347336309417867780000012195025517338297790_" fill="none" stroke="#0A9396" d="M161.942,525.953
		l-60.353,4.661"/>
	<path id="b3003rd_00000096756759640497821060000001408038026619528856_" fill="none" stroke="#0A9396" d="M222.295,523.926
		l-60.353,2.027"/>
	<path id="b3004th_00000016066943294507907930000015856825812966686367_" fill="none" stroke="#0A9396" d="M282.648,521.9
		l-60.353,2.027"/>
	<circle id="b3001_00000169534425995589641200000012649401684864156824_" fill="#0A9396" cx="41.237" cy="535.276" r="3.287"/>
	<circle id="b3002_00000055693081333528046340000004079892593023983793_" fill="#0A9396" cx="101.59" cy="530.412" r="3.287"/>
	<circle id="b3003_00000121268165791427013550000010674063681229981072_" fill="#0A9396" cx="161.942" cy="525.953" r="3.287"/>
	<circle id="b3004_00000164471954353096939170000011094754516160238748_" fill="#0A9396" cx="222.295" cy="523.926" r="3.287"/>
	<circle id="b3005_00000065039302309849729750000005118167136949854370_" fill="#0A9396" cx="282.648" cy="521.9" r="3.287"/>
	<path id="r300last_00000082336546479808649150000010672830047125023400_" fill="none" stroke="#E76F51" d="M222.295,750.923
		l60.353-5.675"/>
	<path id="r3003rd_00000154396415023180361520000004253426246648683696_" fill="none" stroke="#E76F51" d="M161.942,724.17
		l60.353,26.753"/>
	<path id="r3002nd_00000170976237811983764420000017999804229800334731_" fill="none" stroke="#E76F51" d="M101.59,728.223
		l60.353-4.053"/>
	<path id="r3001st_00000163771216934413742260000001050231635747037099_" fill="none" stroke="#E76F51" d="M41.237,735.925
		l60.353-7.702"/>
	<circle id="r3001_00000106846110080780187090000010635177030896498839_" fill="#E76F51" cx="41.237" cy="735.925" r="3.287"/>
	<circle id="r3002_00000106845909648112229510000013628810184835295923_" fill="#E76F51" cx="101.59" cy="728.223" r="3.287"/>
	<circle id="r3003_00000139252840313742912940000014863281504841829000_" fill="#E76F51" cx="161.942" cy="724.17" r="3.287"/>
	<circle id="r3004_00000095311151425571085140000010802641131975126198_" fill="#E76F51" cx="222.295" cy="750.923" r="3.287"/>
	<circle id="r3005_00000086653404480323924620000012436961811158847104_" fill="#E76F51" cx="282.648" cy="745.248" r="3.287"/>
	<path id="y300last_00000023986281344020572750000014000750494640630915_" fill="none" stroke="#EE9B00" d="M222.295,677.96
		l60.353-16.214"/>
	<path id="y300third_00000044890909211507873900000005209044982944178563_" fill="none" stroke="#EE9B00" d="M161.942,674.717
		l60.353,3.243"/>
	<path id="y300second_00000149378259910236715830000015711821107671983534_" fill="none" stroke="#EE9B00" d="M101.59,675.122
		l60.353-0.405"/>
	<path id="y300first_00000035506010561835754640000006766142930843809927_" fill="none" stroke="#EE9B00" d="M41.237,692.958
		l60.353-17.835"/>
	<circle id="y3001_00000141438461424436132270000012909447931005566886_" fill="#EE9B00" cx="41.237" cy="692.958" r="3.287"/>
	<circle id="y3002_00000160892399532878084310000002668352727232166307_" fill="#EE9B00" cx="101.59" cy="675.122" r="3.287"/>
	<circle id="y3003_00000002354444970687063710000005445949100782217918_" fill="#EE9B00" cx="161.942" cy="674.717" r="3.287"/>
	<circle id="y3004_00000139998437434792727530000018353954455035967397_" fill="#EE9B00" cx="222.295" cy="677.96" r="3.287"/>
	<circle id="y3005_00000096027423586449290360000006616376924123531405_" fill="#EE9B00" cx="282.648" cy="661.746" r="3.287"/>
	<path id="b300first_00000125565677936208648750000011851785139352087438_" fill="none" stroke="#0A9396" d="M101.59,530.615
		l-60.353,4.662"/>
	<g id="p2022_00000146460450883005677300000016007906965046195870_">
		<g id="i2022_00000019676241781877668840000014540081579117822084_">
			
				<rect id="_x32_022ipadb_00000029730128641397756670000002048935787485453195_" x="32.005" y="264.842" fill="#0A9396" width="155.35" height="136.135"/>
			
				<rect id="_x32_022ipadr_00000124152332232265125630000016815383151944583605_" x="32.005" y="402.494" fill="#E76F51" width="155.35" height="46.263"/>
			
				<rect id="_x32_022ipady_00000031196937802087774350000017173308342227378099_" x="189.178" y="264.842" fill="#EE9B00" width="66.969" height="183.915"/>
		</g>
	</g>
	<g id="p2021_00000006685929069471627160000012869069441933926314_">
		<g>
			<g>
				<g id="i2021_00000079468935938566999060000015836216349969456574_">
					
						<rect id="_x32_021ipadb_00000107546207601020648350000015263818549766752425_" x="32.005" y="264.094" fill="#0A9396" width="158.539" height="137.652"/>
					
						<rect id="_x32_021ipadr_00000134943555057527789820000016039620290509251224_" x="32.005" y="403.263" fill="#E76F51" width="158.539" height="44.746"/>
					
						<rect id="_x32_021ipady_00000072278599288678830660000004440775026929947520_" x="192.367" y="264.094" fill="#EE9B00" width="63.78" height="183.915"/>
				</g>
				<rect x="191.834" y="331.439" fill="none" width="67.88" height="49.225"/>
				<g display="none">
					<text transform="matrix(1 0 0 1 215.667 341.7046)" display="inline" font-family="'Roboto-Regular'" font-size="12px">461</text>
					<text transform="matrix(1 0 0 1 203.9619 355.3047)" display="inline" font-family="'Roboto-Regular'" font-size="12px">full-time</text>
					<text transform="matrix(1 0 0 1 207.7237 368.9048)" display="inline" font-family="'Roboto-Regular'" font-size="12px">faculty </text>
				</g>
				<rect x="45.366" y="320.972" fill="none" width="133.021" height="37.809"/>
				<g display="none">
					<text transform="matrix(1 0 0 1 101.7691 331.2378)" display="inline" font-family="'Roboto-Regular'" font-size="12px">841 </text>
					<text transform="matrix(1 0 0 1 70.5298 344.8379)" display="inline" font-family="'Roboto-Regular'" font-size="12px">full-time faculty</text>
				</g>
				<rect x="45.366" y="411.696" fill="none" width="133.021" height="37.809"/>
				<g display="none">
					<text transform="matrix(1 0 0 1 101.7691 421.9614)" display="inline" font-family="'Roboto-Regular'" font-size="12px">281 </text>
					<text transform="matrix(1 0 0 1 70.5298 435.561)" display="inline" font-family="'Roboto-Regular'" font-size="12px">full-time faculty</text>
				</g>
			</g>
			<rect x="58.86" y="206.733" fill="none" width="177.394" height="16.087"/>
			<g display="none">
				<text transform="matrix(1 0 0 1 58.8598 218.7101)" display="inline" font-family="'Roboto-Regular'" font-size="14px">T</text>
				<text transform="matrix(1 0 0 1 66.5365 218.7101)" display="inline" font-family="'Roboto-Regular'" font-size="14px">o</text>
				<text transform="matrix(1 0 0 1 74.5209 218.7101)" display="inline" font-family="'Roboto-Regular'" font-size="14px">t</text>
				<text transform="matrix(1 0 0 1 79.0941 218.7101)" display="inline" font-family="'Roboto-Regular'" font-size="14px">a</text>
				<text transform="matrix(1 0 0 1 86.7094 218.7101)" display="inline" font-family="'Roboto-Regular'" font-size="14px">l</text>
				<text transform="matrix(1 0 0 1 90.1068 218.7101)" display="inline" font-family="'Roboto-Regular'" font-size="14px">:</text>
				<text transform="matrix(1 0 0 1 93.4975 218.7101)" display="inline" font-family="'Roboto-Regular'" font-size="14px"> </text>
				<text transform="matrix(1 0 0 1 96.9633 218.7101)" display="inline" font-family="'Roboto-Regular'" font-size="14px">1</text>
				<text transform="matrix(1 0 0 1 104.8246 218.7101)" display="inline" font-family="'Roboto-Regular'" font-size="14px">,</text>
				<text transform="matrix(1 0 0 1 107.5727 218.7101)" display="inline" font-family="'Roboto-Regular'" font-size="14px">5</text>
				<text transform="matrix(1 0 0 1 115.434 218.7101)" display="inline" font-family="'Roboto-Regular'" font-size="14px">8</text>
				<text transform="matrix(1 0 0 1 123.2953 218.7101)" display="inline" font-family="'Roboto-Regular'" font-size="14px">3</text>
				<text transform="matrix(1 0 0 1 131.1566 218.7101)" display="inline" font-family="'Roboto-Regular'" font-size="14px"> </text>
				<text transform="matrix(1 0 0 1 134.6225 218.7101)" display="inline" font-family="'Roboto-Regular'" font-size="14px">f</text>
				<text transform="matrix(1 0 0 1 139.4828 218.7101)" display="inline" font-family="'Roboto-Regular'" font-size="14px">u</text>
				<text transform="matrix(1 0 0 1 147.2006 218.7101)" display="inline" font-family="'Roboto-Regular'" font-size="14px">l</text>
				<text transform="matrix(1 0 0 1 150.5981 218.7101)" display="inline" font-family="'Roboto-Regular'" font-size="14px">l</text>
				<text transform="matrix(1 0 0 1 153.9955 218.7101)" display="inline" font-family="'Roboto-Regular'" font-size="14px">-</text>
				<text transform="matrix(1 0 0 1 157.8578 218.7101)" display="inline" font-family="'Roboto-Regular'" font-size="14px">t</text>
				<text transform="matrix(1 0 0 1 162.4311 218.7101)" display="inline" font-family="'Roboto-Regular'" font-size="14px">i</text>
				<text transform="matrix(1 0 0 1 165.8285 218.7101)" display="inline" font-family="'Roboto-Regular'" font-size="14px">m</text>
				<text transform="matrix(1 0 0 1 178.099 218.7101)" display="inline" font-family="'Roboto-Regular'" font-size="14px">e</text>
				<text transform="matrix(1 0 0 1 185.516 218.7101)" display="inline" font-family="'Roboto-Regular'" font-size="14px"> </text>
				<text transform="matrix(1 0 0 1 188.9818 218.7101)" display="inline" font-family="'Roboto-Regular'" font-size="14px">f</text>
				<text transform="matrix(1 0 0 1 193.8422 218.7101)" display="inline" font-family="'Roboto-Regular'" font-size="14px">a</text>
				<text transform="matrix(1 0 0 1 201.4574 218.7101)" display="inline" font-family="'Roboto-Regular'" font-size="14px">c</text>
				<text transform="matrix(1 0 0 1 208.7856 218.7101)" display="inline" font-family="'Roboto-Regular'" font-size="14px">u</text>
				<text transform="matrix(1 0 0 1 216.5033 218.7101)" display="inline" font-family="'Roboto-Regular'" font-size="14px">l</text>
				<text transform="matrix(1 0 0 1 219.9008 218.7101)" display="inline" font-family="'Roboto-Regular'" font-size="14px">t</text>
				<text transform="matrix(1 0 0 1 224.474 218.7101)" display="inline" font-family="'Roboto-Regular'" font-size="14px">y</text>
			</g>
		</g>
	</g>
	<g id="p2020_00000109008447077375811570000016404648544325027989_">
		<g>
			<rect x="58.86" y="206.733" fill="none" width="177.394" height="16.087"/>
			<g display="none">
				<text transform="matrix(1 0 0 1 58.8596 218.7091)" display="inline" font-family="'Roboto-Regular'" font-size="14px">T</text>
				<text transform="matrix(1 0 0 1 66.5364 218.7091)" display="inline" font-family="'Roboto-Regular'" font-size="14px">o</text>
				<text transform="matrix(1 0 0 1 74.5208 218.7091)" display="inline" font-family="'Roboto-Regular'" font-size="14px">t</text>
				<text transform="matrix(1 0 0 1 79.094 218.7091)" display="inline" font-family="'Roboto-Regular'" font-size="14px">a</text>
				<text transform="matrix(1 0 0 1 86.7093 218.7091)" display="inline" font-family="'Roboto-Regular'" font-size="14px">l</text>
				<text transform="matrix(1 0 0 1 90.1067 218.7091)" display="inline" font-family="'Roboto-Regular'" font-size="14px">:</text>
				<text transform="matrix(1 0 0 1 93.4973 218.7091)" display="inline" font-family="'Roboto-Regular'" font-size="14px"> </text>
				<text transform="matrix(1 0 0 1 96.9632 218.7091)" display="inline" font-family="'Roboto-Regular'" font-size="14px">1</text>
				<text transform="matrix(1 0 0 1 104.8245 218.7091)" display="inline" font-family="'Roboto-Regular'" font-size="14px">,</text>
				<text transform="matrix(1 0 0 1 107.5725 218.7091)" display="inline" font-family="'Roboto-Regular'" font-size="14px">6</text>
				<text transform="matrix(1 0 0 1 115.4339 218.7091)" display="inline" font-family="'Roboto-Regular'" font-size="14px">5</text>
				<text transform="matrix(1 0 0 1 123.2952 218.7091)" display="inline" font-family="'Roboto-Regular'" font-size="14px">2</text>
				<text transform="matrix(1 0 0 1 131.1565 218.7091)" display="inline" font-family="'Roboto-Regular'" font-size="14px"> </text>
				<text transform="matrix(1 0 0 1 134.6223 218.7091)" display="inline" font-family="'Roboto-Regular'" font-size="14px">f</text>
				<text transform="matrix(1 0 0 1 139.4827 218.7091)" display="inline" font-family="'Roboto-Regular'" font-size="14px">u</text>
				<text transform="matrix(1 0 0 1 147.2005 218.7091)" display="inline" font-family="'Roboto-Regular'" font-size="14px">l</text>
				<text transform="matrix(1 0 0 1 150.5979 218.7091)" display="inline" font-family="'Roboto-Regular'" font-size="14px">l</text>
				<text transform="matrix(1 0 0 1 153.9954 218.7091)" display="inline" font-family="'Roboto-Regular'" font-size="14px">-</text>
				<text transform="matrix(1 0 0 1 157.8577 218.7091)" display="inline" font-family="'Roboto-Regular'" font-size="14px">t</text>
				<text transform="matrix(1 0 0 1 162.4309 218.7091)" display="inline" font-family="'Roboto-Regular'" font-size="14px">i</text>
				<text transform="matrix(1 0 0 1 165.8284 218.7091)" display="inline" font-family="'Roboto-Regular'" font-size="14px">m</text>
				<text transform="matrix(1 0 0 1 178.0989 218.7091)" display="inline" font-family="'Roboto-Regular'" font-size="14px">e</text>
				<text transform="matrix(1 0 0 1 185.5159 218.7091)" display="inline" font-family="'Roboto-Regular'" font-size="14px"> </text>
				<text transform="matrix(1 0 0 1 188.9817 218.7091)" display="inline" font-family="'Roboto-Regular'" font-size="14px">f</text>
				<text transform="matrix(1 0 0 1 193.8421 218.7091)" display="inline" font-family="'Roboto-Regular'" font-size="14px">a</text>
				<text transform="matrix(1 0 0 1 201.4573 218.7091)" display="inline" font-family="'Roboto-Regular'" font-size="14px">c</text>
				<text transform="matrix(1 0 0 1 208.7854 218.7091)" display="inline" font-family="'Roboto-Regular'" font-size="14px">u</text>
				<text transform="matrix(1 0 0 1 216.5032 218.7091)" display="inline" font-family="'Roboto-Regular'" font-size="14px">l</text>
				<text transform="matrix(1 0 0 1 219.9007 218.7091)" display="inline" font-family="'Roboto-Regular'" font-size="14px">t</text>
				<text transform="matrix(1 0 0 1 224.4739 218.7091)" display="inline" font-family="'Roboto-Regular'" font-size="14px">y</text>
			</g>
			<g>
				<g id="i2020_00000089549874506698463850000018367410986239391397_">
					
						<rect id="_x32_020ipadr_00000179609880225205008560000001732486074594029476_" x="31.483" y="395.84" fill="#E76F51" width="159.906" height="52.71"/>
					
						<rect id="_x32_020ipady_00000062888831023394600200000013519891424335813543_" x="193.211" y="264.634" fill="#EE9B00" width="62.413" height="183.915"/>
					
						<rect id="_x32_020ipadb_00000132074766275606096430000018418384224405912462_" x="31.483" y="264.634" fill="#0A9396" width="159.906" height="129.689"/>
				</g>
				<rect x="192.589" y="330.373" fill="none" width="67.88" height="49.225"/>
				<g display="none">
					<text transform="matrix(1 0 0 1 216.4219 340.6391)" display="inline" font-family="'Roboto-Regular'" font-size="12px">469</text>
					<text transform="matrix(1 0 0 1 204.7178 354.2392)" display="inline" font-family="'Roboto-Regular'" font-size="12px">full-time</text>
					<text transform="matrix(1 0 0 1 208.4795 367.8393)" display="inline" font-family="'Roboto-Regular'" font-size="12px">faculty </text>
				</g>
				<rect x="46.121" y="319.906" fill="none" width="133.021" height="37.809"/>
				<g display="none">
					<text transform="matrix(1 0 0 1 102.5244 330.1718)" display="inline" font-family="'Roboto-Regular'" font-size="12px">836 </text>
					<text transform="matrix(1 0 0 1 71.2852 343.7719)" display="inline" font-family="'Roboto-Regular'" font-size="12px">full-time faculty</text>
				</g>
				<rect x="46.121" y="410.63" fill="none" width="133.021" height="37.809"/>
				<g display="none">
					<text transform="matrix(1 0 0 1 102.5244 420.8969)" display="inline" font-family="'Roboto-Regular'" font-size="12px">347 </text>
					<text transform="matrix(1 0 0 1 71.2852 434.4965)" display="inline" font-family="'Roboto-Regular'" font-size="12px">full-time faculty</text>
				</g>
			</g>
		</g>
	</g>
	<g id="p2019_00000125568793500276576930000001841580376410075559_">
		<g>
			<g>
				<g id="i2019_00000158005271482403070250000000250014495263999147_">
					
						<rect id="_x32_019ipadb_00000178922823105391643000000012250945157974629509_" x="33.047" y="264.094" fill="#0A9396" width="159.45" height="130.068"/>
					
						<rect id="_x32_019ipadr_00000103222999326316589010000005313286454381535137_" x="33.047" y="395.679" fill="#E76F51" width="159.45" height="52.331"/>
					
						<rect id="_x32_019ipady_00000116223792908648543330000009914244192730390670_" x="194.32" y="264.094" fill="#EE9B00" width="62.869" height="183.915"/>
				</g>
				<rect x="191.025" y="329.186" fill="none" width="67.88" height="49.225"/>
				<g display="none">
					<text transform="matrix(1 0 0 1 214.8583 339.4519)" display="inline" font-family="'Roboto-Regular'" font-size="12px">468</text>
					<text transform="matrix(1 0 0 1 203.1542 353.052)" display="inline" font-family="'Roboto-Regular'" font-size="12px">full-time</text>
					<text transform="matrix(1 0 0 1 206.9159 366.6521)" display="inline" font-family="'Roboto-Regular'" font-size="12px">faculty </text>
				</g>
				<rect x="41.557" y="318.719" fill="none" width="133.021" height="37.809"/>
				<g display="none">
					<text transform="matrix(1 0 0 1 97.9608 328.9846)" display="inline" font-family="'Roboto-Regular'" font-size="12px">825 </text>
					<text transform="matrix(1 0 0 1 66.7216 342.5847)" display="inline" font-family="'Roboto-Regular'" font-size="12px">full-time faculty</text>
				</g>
				<rect x="41.557" y="409.443" fill="none" width="133.021" height="37.809"/>
				<g display="none">
					<text transform="matrix(1 0 0 1 97.9608 419.7097)" display="inline" font-family="'Roboto-Regular'" font-size="12px">337 </text>
					<text transform="matrix(1 0 0 1 66.7216 433.3093)" display="inline" font-family="'Roboto-Regular'" font-size="12px">full-time faculty</text>
				</g>
			</g>
			<rect x="58.86" y="206.733" fill="none" width="177.394" height="16.087"/>
			<g display="none">
				<text transform="matrix(1 0 0 1 58.8598 218.7091)" display="inline" font-family="'Roboto-Regular'" font-size="14px">T</text>
				<text transform="matrix(1 0 0 1 66.5365 218.7091)" display="inline" font-family="'Roboto-Regular'" font-size="14px">o</text>
				<text transform="matrix(1 0 0 1 74.5209 218.7091)" display="inline" font-family="'Roboto-Regular'" font-size="14px">t</text>
				<text transform="matrix(1 0 0 1 79.0941 218.7091)" display="inline" font-family="'Roboto-Regular'" font-size="14px">a</text>
				<text transform="matrix(1 0 0 1 86.7094 218.7091)" display="inline" font-family="'Roboto-Regular'" font-size="14px">l</text>
				<text transform="matrix(1 0 0 1 90.1068 218.7091)" display="inline" font-family="'Roboto-Regular'" font-size="14px">:</text>
				<text transform="matrix(1 0 0 1 93.4975 218.7091)" display="inline" font-family="'Roboto-Regular'" font-size="14px"> </text>
				<text transform="matrix(1 0 0 1 96.9633 218.7091)" display="inline" font-family="'Roboto-Regular'" font-size="14px">1</text>
				<text transform="matrix(1 0 0 1 104.8246 218.7091)" display="inline" font-family="'Roboto-Regular'" font-size="14px">,</text>
				<text transform="matrix(1 0 0 1 107.5727 218.7091)" display="inline" font-family="'Roboto-Regular'" font-size="14px">6</text>
				<text transform="matrix(1 0 0 1 115.434 218.7091)" display="inline" font-family="'Roboto-Regular'" font-size="14px">3</text>
				<text transform="matrix(1 0 0 1 123.2953 218.7091)" display="inline" font-family="'Roboto-Regular'" font-size="14px">0</text>
				<text transform="matrix(1 0 0 1 131.1566 218.7091)" display="inline" font-family="'Roboto-Regular'" font-size="14px"> </text>
				<text transform="matrix(1 0 0 1 134.6225 218.7091)" display="inline" font-family="'Roboto-Regular'" font-size="14px">f</text>
				<text transform="matrix(1 0 0 1 139.4828 218.7091)" display="inline" font-family="'Roboto-Regular'" font-size="14px">u</text>
				<text transform="matrix(1 0 0 1 147.2006 218.7091)" display="inline" font-family="'Roboto-Regular'" font-size="14px">l</text>
				<text transform="matrix(1 0 0 1 150.5981 218.7091)" display="inline" font-family="'Roboto-Regular'" font-size="14px">l</text>
				<text transform="matrix(1 0 0 1 153.9955 218.7091)" display="inline" font-family="'Roboto-Regular'" font-size="14px">-</text>
				<text transform="matrix(1 0 0 1 157.8578 218.7091)" display="inline" font-family="'Roboto-Regular'" font-size="14px">t</text>
				<text transform="matrix(1 0 0 1 162.4311 218.7091)" display="inline" font-family="'Roboto-Regular'" font-size="14px">i</text>
				<text transform="matrix(1 0 0 1 165.8285 218.7091)" display="inline" font-family="'Roboto-Regular'" font-size="14px">m</text>
				<text transform="matrix(1 0 0 1 178.099 218.7091)" display="inline" font-family="'Roboto-Regular'" font-size="14px">e</text>
				<text transform="matrix(1 0 0 1 185.516 218.7091)" display="inline" font-family="'Roboto-Regular'" font-size="14px"> </text>
				<text transform="matrix(1 0 0 1 188.9818 218.7091)" display="inline" font-family="'Roboto-Regular'" font-size="14px">f</text>
				<text transform="matrix(1 0 0 1 193.8422 218.7091)" display="inline" font-family="'Roboto-Regular'" font-size="14px">a</text>
				<text transform="matrix(1 0 0 1 201.4574 218.7091)" display="inline" font-family="'Roboto-Regular'" font-size="14px">c</text>
				<text transform="matrix(1 0 0 1 208.7856 218.7091)" display="inline" font-family="'Roboto-Regular'" font-size="14px">u</text>
				<text transform="matrix(1 0 0 1 216.5033 218.7091)" display="inline" font-family="'Roboto-Regular'" font-size="14px">l</text>
				<text transform="matrix(1 0 0 1 219.9008 218.7091)" display="inline" font-family="'Roboto-Regular'" font-size="14px">t</text>
				<text transform="matrix(1 0 0 1 224.474 218.7091)" display="inline" font-family="'Roboto-Regular'" font-size="14px">y</text>
			</g>
		</g>
	</g>
	<g id="p2018_00000150070517302395940700000009428511279878491063_">
		<g>
			<g>
				<g id="i2018_00000122722342825713537360000008876227699819354003_">
					
						<rect id="_x32_018ipadb_00000080172537205882313120000018295874593873184694_" x="32.005" y="264.094" fill="#0A9396" width="162.639" height="131.964"/>
					
						<rect id="_x32_018ipadr_00000183943989331155110570000008448507691505730211_" x="32.005" y="397.575" fill="#E76F51" width="162.639" height="50.434"/>
					
						<rect id="_x32_018ipady_00000030482401214797790220000007653198069308427907_" x="196.467" y="264.094" fill="#EE9B00" width="59.68" height="183.915"/>
				</g>
				<rect x="188.267" y="328.71" fill="none" width="67.88" height="49.225"/>
				<g display="none">
					<text transform="matrix(1 0 0 1 212.0996 338.9756)" display="inline" font-family="'Roboto-Regular'" font-size="12px">424</text>
					<text transform="matrix(1 0 0 1 200.3955 352.5757)" display="inline" font-family="'Roboto-Regular'" font-size="12px">full-time</text>
					<text transform="matrix(1 0 0 1 204.1573 366.1758)" display="inline" font-family="'Roboto-Regular'" font-size="12px">faculty </text>
				</g>
				<rect x="41.799" y="318.243" fill="none" width="133.021" height="37.809"/>
				<g display="none">
					<text transform="matrix(1 0 0 1 98.2022 328.5083)" display="inline" font-family="'Roboto-Regular'" font-size="12px">813 </text>
					<text transform="matrix(1 0 0 1 66.9629 342.1084)" display="inline" font-family="'Roboto-Regular'" font-size="12px">full-time faculty</text>
				</g>
				<rect x="41.799" y="408.967" fill="none" width="133.021" height="37.809"/>
				<g display="none">
					<text transform="matrix(1 0 0 1 98.2022 419.2334)" display="inline" font-family="'Roboto-Regular'" font-size="12px">318</text>
					<text transform="matrix(1 0 0 1 66.9629 432.833)" display="inline" font-family="'Roboto-Regular'" font-size="12px">full-time faculty</text>
				</g>
			</g>
			<rect x="58.86" y="206.733" fill="none" width="177.394" height="16.087"/>
			<g display="none">
				<text transform="matrix(1 0 0 1 58.8598 218.7091)" display="inline" font-family="'Roboto-Regular'" font-size="14px">T</text>
				<text transform="matrix(1 0 0 1 66.5365 218.7091)" display="inline" font-family="'Roboto-Regular'" font-size="14px">o</text>
				<text transform="matrix(1 0 0 1 74.5209 218.7091)" display="inline" font-family="'Roboto-Regular'" font-size="14px">t</text>
				<text transform="matrix(1 0 0 1 79.0941 218.7091)" display="inline" font-family="'Roboto-Regular'" font-size="14px">a</text>
				<text transform="matrix(1 0 0 1 86.7094 218.7091)" display="inline" font-family="'Roboto-Regular'" font-size="14px">l</text>
				<text transform="matrix(1 0 0 1 90.1068 218.7091)" display="inline" font-family="'Roboto-Regular'" font-size="14px">:</text>
				<text transform="matrix(1 0 0 1 93.4975 218.7091)" display="inline" font-family="'Roboto-Regular'" font-size="14px"> </text>
				<text transform="matrix(1 0 0 1 96.9633 218.7091)" display="inline" font-family="'Roboto-Regular'" font-size="14px">1</text>
				<text transform="matrix(1 0 0 1 104.8246 218.7091)" display="inline" font-family="'Roboto-Regular'" font-size="14px">,</text>
				<text transform="matrix(1 0 0 1 107.5727 218.7091)" display="inline" font-family="'Roboto-Regular'" font-size="14px">5</text>
				<text transform="matrix(1 0 0 1 115.434 218.7091)" display="inline" font-family="'Roboto-Regular'" font-size="14px">5</text>
				<text transform="matrix(1 0 0 1 123.2953 218.7091)" display="inline" font-family="'Roboto-Regular'" font-size="14px">5</text>
				<text transform="matrix(1 0 0 1 131.1566 218.7091)" display="inline" font-family="'Roboto-Regular'" font-size="14px"> </text>
				<text transform="matrix(1 0 0 1 134.6225 218.7091)" display="inline" font-family="'Roboto-Regular'" font-size="14px">f</text>
				<text transform="matrix(1 0 0 1 139.4828 218.7091)" display="inline" font-family="'Roboto-Regular'" font-size="14px">u</text>
				<text transform="matrix(1 0 0 1 147.2006 218.7091)" display="inline" font-family="'Roboto-Regular'" font-size="14px">l</text>
				<text transform="matrix(1 0 0 1 150.5981 218.7091)" display="inline" font-family="'Roboto-Regular'" font-size="14px">l</text>
				<text transform="matrix(1 0 0 1 153.9955 218.7091)" display="inline" font-family="'Roboto-Regular'" font-size="14px">-</text>
				<text transform="matrix(1 0 0 1 157.8578 218.7091)" display="inline" font-family="'Roboto-Regular'" font-size="14px">t</text>
				<text transform="matrix(1 0 0 1 162.4311 218.7091)" display="inline" font-family="'Roboto-Regular'" font-size="14px">i</text>
				<text transform="matrix(1 0 0 1 165.8285 218.7091)" display="inline" font-family="'Roboto-Regular'" font-size="14px">m</text>
				<text transform="matrix(1 0 0 1 178.099 218.7091)" display="inline" font-family="'Roboto-Regular'" font-size="14px">e</text>
				<text transform="matrix(1 0 0 1 185.516 218.7091)" display="inline" font-family="'Roboto-Regular'" font-size="14px"> </text>
				<text transform="matrix(1 0 0 1 188.9818 218.7091)" display="inline" font-family="'Roboto-Regular'" font-size="14px">f</text>
				<text transform="matrix(1 0 0 1 193.8422 218.7091)" display="inline" font-family="'Roboto-Regular'" font-size="14px">a</text>
				<text transform="matrix(1 0 0 1 201.4574 218.7091)" display="inline" font-family="'Roboto-Regular'" font-size="14px">c</text>
				<text transform="matrix(1 0 0 1 208.7856 218.7091)" display="inline" font-family="'Roboto-Regular'" font-size="14px">u</text>
				<text transform="matrix(1 0 0 1 216.5033 218.7091)" display="inline" font-family="'Roboto-Regular'" font-size="14px">l</text>
				<text transform="matrix(1 0 0 1 219.9008 218.7091)" display="inline" font-family="'Roboto-Regular'" font-size="14px">t</text>
				<text transform="matrix(1 0 0 1 224.474 218.7091)" display="inline" font-family="'Roboto-Regular'" font-size="14px">y</text>
			</g>
		</g>
	</g>
</g>
<style>
#g-linechart-Artboard_8-interactives-img rect, #g-linechart-Artboard_8-interactives-img circle, #g-linechart-Artboard_8-interactives-img path, #g-linechart-Artboard_8-interactives-img line, #g-linechart-Artboard_8-interactives-img polyline, #g-linechart-Artboard_8-interactives-img polygon { vector-effect: non-scaling-stroke; }
</style>
</svg>

